<?xml version="1.0" standalone="no"?>
<!DOCTYPE svg PUBLIC "-//W3C//DTD SVG 20010904//EN"
 "http://www.w3.org/TR/2001/REC-SVG-20010904/DTD/svg10.dtd">
<svg version="1.0" xmlns="http://www.w3.org/2000/svg"
 width="304.755467pt" height="447.674732pt" viewBox="0 0 304.755467 447.674732"
 preserveAspectRatio="xMidYMid meet">
<metadata>
Created by potrace 1.16, written by Peter Selinger 2001-2019
</metadata>
<g transform="translate(-35.122647,494.860486) scale(0.100000,-0.100000)"
fill="#000000" stroke="none">
<path d="M1797 4930 c-14 -11 -30 -20 -35 -20 -6 0 -21 -21 -34 -47 -13 -26
-58 -83 -101 -127 -77 -81 -147 -176 -147 -201 0 -7 -7 -18 -15 -25 -8 -7 -15
-17 -15 -22 0 -14 -101 -138 -112 -138 -4 0 -78 -71 -164 -157 -297 -300 -284
-283 -311 -376 -23 -81 -91 -177 -125 -177 -11 0 -67 -48 -129 -109 -93 -93
-112 -117 -129 -165 -10 -31 -35 -76 -55 -100 -26 -32 -35 -53 -35 -80 0 -23
-7 -43 -20 -56 -24 -24 -25 -33 -2 -81 18 -40 59 -65 89 -56 117 36 206 97
278 191 28 36 53 65 57 66 4 0 27 14 52 31 69 49 74 42 69 -103 -2 -67 -6
-130 -9 -138 -6 -14 -17 -156 -18 -225 0 -16 4 -91 9 -165 4 -74 9 -180 9
-235 1 -57 7 -109 14 -122 10 -18 9 -29 -6 -65 -25 -58 -33 -114 -21 -146 7
-18 6 -34 -2 -54 -9 -23 -9 -35 1 -56 6 -15 13 -66 15 -113 2 -48 8 -96 14
-107 6 -11 11 -34 11 -51 0 -33 17 -45 97 -71 23 -7 68 -35 100 -62 32 -27 69
-51 83 -54 14 -3 36 -9 50 -14 14 -5 82 -8 152 -7 l126 2 36 37 c20 20 36 40
36 44 0 4 15 30 33 58 33 52 58 133 61 201 1 22 10 63 19 92 16 45 16 55 4 85
-8 20 -12 59 -10 98 7 118 3 264 -8 320 -16 85 -11 129 21 197 28 56 30 65 20
105 -41 160 -44 210 -19 260 12 24 17 47 13 67 -4 17 -2 37 3 43 29 36 18 265
-15 320 -21 35 -27 37 -141 40 -93 2 -94 2 -117 -27 -20 -26 -24 -41 -24 -105
0 -58 -5 -85 -21 -115 -12 -22 -25 -65 -30 -95 -20 -133 -43 -186 -85 -196
-32 -8 -57 13 -50 42 3 12 -2 42 -12 66 -22 50 -35 166 -32 286 2 100 -11 122
-71 122 -64 0 -89 15 -89 52 0 28 10 43 66 95 77 72 136 99 191 88 21 -3 103
-8 183 -10 139 -3 195 -10 251 -33 18 -7 50 -7 100 -1 41 5 116 12 167 14 51
3 98 8 105 12 21 13 231 45 292 44 96 -1 138 -11 173 -42 18 -16 37 -29 42
-29 5 0 12 -11 16 -25 3 -14 11 -25 16 -25 15 0 55 -36 121 -107 42 -47 57
-70 57 -92 0 -57 58 -125 165 -194 27 -18 51 -41 53 -52 5 -27 89 -112 134
-136 42 -22 104 -25 143 -7 58 26 85 140 45 191 -11 14 -20 30 -20 36 0 17
-68 102 -115 143 -36 31 -43 45 -49 86 -4 34 -14 56 -32 73 -47 44 -104 126
-104 149 0 20 -11 33 -98 113 -34 31 -88 93 -106 121 -10 16 -30 33 -45 39
-15 5 -33 22 -40 37 -12 28 -41 70 -98 141 -18 23 -33 46 -33 53 0 7 -10 21
-23 32 -12 11 -28 40 -36 64 -20 68 -25 75 -63 78 -37 3 -93 59 -223 221 -72
90 -152 156 -227 188 -49 22 -59 31 -73 67 -23 58 -57 93 -107 111 -56 19 -60
19 -91 -5z m160 -613 c12 -7 39 -35 61 -62 41 -51 51 -58 132 -93 71 -30 135
-92 127 -123 -10 -40 -67 -58 -150 -48 -37 5 -76 5 -87 1 -12 -4 -53 -4 -93 0
-40 4 -127 7 -194 7 -202 1 -216 22 -102 142 39 41 78 84 86 97 26 37 96 80
139 85 21 2 44 4 49 5 6 1 20 -4 32 -11z m-584 -1911 c-7 -86 -11 -128 -22
-230 -5 -49 -8 -125 -6 -170 3 -45 2 -88 -1 -97 -5 -19 -88 -54 -103 -44 -20
12 -29 74 -24 166 7 124 7 119 0 233 -3 57 -1 110 4 125 23 61 94 107 135 89
20 -10 22 -16 17 -72z"/>
<path d="M1989 3404 c-77 -49 -169 -144 -168 -174 0 -25 54 -70 84 -70 7 0 26
-15 42 -34 15 -19 44 -40 63 -48 45 -19 66 -44 52 -60 -6 -9 -7 -56 -3 -133 5
-88 4 -124 -5 -135 -6 -8 -16 -55 -22 -105 -7 -66 -15 -93 -29 -105 -34 -29
-73 -96 -73 -127 0 -18 -5 -44 -11 -60 -7 -19 -7 -46 0 -89 9 -47 8 -91 -4
-195 -22 -186 -5 -269 55 -269 16 0 31 -4 34 -9 10 -16 106 -21 149 -6 126 42
197 15 252 -95 24 -47 88 -144 98 -149 5 -2 13 -14 18 -28 5 -14 19 -27 30
-30 22 -6 69 -99 69 -138 0 -13 7 -25 15 -29 20 -7 19 -40 -1 -57 -11 -9 -14
-22 -10 -42 3 -17 1 -36 -5 -44 -9 -9 -9 -20 -2 -36 6 -12 8 -37 6 -54 -3 -20
-1 -33 5 -33 17 0 29 -65 36 -188 5 -105 8 -118 41 -181 21 -40 33 -74 29 -84
-12 -31 6 -67 49 -98 39 -29 46 -30 100 -24 32 3 70 11 83 17 28 13 64 66 64
96 0 11 9 39 20 63 25 56 27 166 4 212 -13 24 -15 47 -10 104 3 43 2 74 -4 78
-6 3 -10 25 -10 48 0 23 -9 62 -20 86 -11 24 -20 52 -20 62 0 10 -8 34 -17 53
-14 31 -15 42 -3 90 12 51 11 59 -10 116 -12 33 -27 63 -32 66 -17 11 -68 124
-68 153 0 35 -56 89 -101 98 -16 3 -45 23 -66 46 -35 39 -79 61 -166 81 -15 4
-47 20 -69 36 -24 18 -52 29 -67 28 -84 -5 -113 26 -126 135 -10 76 -2 94 48
108 65 19 249 8 277 -16 20 -17 146 -17 180 0 44 23 79 109 73 178 -5 54 11
170 27 192 17 23 19 254 3 327 -8 40 -16 101 -17 134 -1 58 -3 64 -43 104 -26
26 -43 52 -43 66 0 13 -8 37 -18 53 -31 51 -61 68 -134 73 -43 4 -79 13 -101
27 -28 17 -52 22 -118 23 -46 1 -97 7 -114 14 -18 7 -73 12 -138 11 -104 -1
-111 -2 -158 -33z m595 -271 c2 -10 7 -58 11 -108 4 -49 11 -94 15 -100 14
-18 8 -119 -8 -138 -12 -13 -13 -22 -4 -42 9 -19 8 -31 -2 -52 -8 -16 -19 -40
-25 -55 -12 -32 -40 -37 -63 -10 -25 28 -49 95 -43 119 3 13 -1 34 -10 47 -30
45 -34 258 -6 329 10 25 14 27 70 27 48 0 61 -3 65 -17z"/>
</g>
</svg>
