<?xml version="1.0" standalone="no"?>
<!DOCTYPE svg PUBLIC "-//W3C//DTD SVG 20010904//EN"
 "http://www.w3.org/TR/2001/REC-SVG-20010904/DTD/svg10.dtd">
<svg version="1.0" xmlns="http://www.w3.org/2000/svg"
 width="368.995471pt" height="274.426088pt" viewBox="0 0 368.995471 274.426088"
 preserveAspectRatio="xMidYMid meet">
<metadata>
Created by potrace 1.16, written by Peter Selinger 2001-2019
</metadata>
<g transform="translate(-12.193463,289.818887) scale(0.100000,-0.100000)"
fill="#000000" stroke="none">
<path d="M2975 2874 c-36 -21 -48 -23 -115 -18 -41 3 -120 1 -175 -5 -55 -7
-162 -14 -238 -17 -139 -5 -139 -5 -209 -62 -39 -31 -79 -64 -90 -73 -14 -11
-21 -32 -25 -80 -3 -35 -12 -84 -20 -109 -39 -117 -45 -213 -17 -237 29 -23
30 -63 2 -175 -9 -35 -9 -57 -1 -83 13 -42 -5 -120 -38 -165 -20 -26 -20 -30
-5 -186 9 -87 18 -185 22 -217 4 -45 1 -65 -11 -84 -29 -43 -4 -365 31 -404
15 -17 38 -89 56 -174 5 -27 14 -58 19 -67 5 -9 12 -36 15 -58 4 -26 20 -57
41 -83 19 -22 43 -58 54 -79 11 -21 23 -38 28 -38 5 0 22 -11 38 -23 15 -13
41 -27 56 -31 20 -5 33 -17 42 -41 18 -42 45 -51 87 -28 42 22 133 22 247 -2
46 -9 98 -14 117 -11 20 4 56 0 89 -9 31 -9 64 -14 73 -10 9 4 41 11 71 16 60
10 111 48 111 84 0 51 55 60 89 14 12 -16 34 -35 49 -41 15 -7 36 -19 47 -29
36 -29 66 -30 150 -2 109 35 108 35 128 76 9 21 21 37 27 37 23 0 31 40 20
100 -9 52 -8 65 9 107 39 94 64 211 56 261 -10 62 -10 113 -1 327 11 239 11
263 -4 385 -16 137 -16 157 -7 272 7 96 7 96 -21 125 -28 28 -28 30 -26 133 2
80 -1 109 -12 121 -8 9 -17 47 -20 90 -10 153 -20 187 -64 235 -24 26 -40 53
-40 68 0 21 -8 27 -52 42 -29 9 -57 20 -63 24 -5 5 -37 11 -69 15 -45 6 -65
14 -83 33 -19 21 -37 27 -96 33 -76 7 -161 33 -188 56 -21 18 -37 15 -84 -13z
m231 -519 c13 -3 34 -7 47 -10 20 -4 59 -49 109 -124 9 -14 17 -42 17 -61 1
-20 8 -46 17 -58 20 -28 11 -88 -14 -101 -42 -21 -163 -21 -205 0 -35 18 -47
20 -96 11 -70 -12 -200 -9 -313 7 -76 11 -100 11 -175 -3 -159 -29 -185 -23
-217 54 -49 119 -29 157 89 171 41 4 88 14 103 22 15 7 43 22 62 32 21 10 66
20 110 23 50 3 86 11 107 24 35 21 65 19 160 -9 50 -16 52 -16 100 10 26 14
54 24 61 21 8 -2 25 -6 38 -9z m102 -731 c12 -2 27 -16 32 -29 5 -14 16 -25
24 -25 55 0 113 -80 100 -138 -27 -131 -61 -153 -196 -123 -78 18 -212 42
-276 50 -35 5 -68 13 -74 19 -6 6 -41 8 -89 5 -44 -3 -119 0 -168 7 -86 12
-90 12 -135 -11 -74 -36 -100 -11 -104 101 -4 122 36 162 146 145 65 -10 345
-7 373 4 23 8 321 5 367 -5z m-733 -548 c19 -8 35 -19 35 -25 0 -19 46 -26
165 -27 66 0 161 -4 210 -8 90 -8 206 6 278 33 32 13 112 4 127 -14 6 -7 11
-34 10 -59 0 -25 0 -67 0 -93 0 -50 -26 -119 -48 -128 -7 -3 -31 4 -52 15 -67
34 -111 27 -143 -22 -27 -43 -69 -55 -223 -61 -101 -4 -158 -11 -209 -26 -46
-14 -83 -19 -107 -15 -20 3 -46 0 -58 -6 -27 -14 -70 10 -70 41 0 11 -10 39
-22 62 -12 23 -27 65 -34 92 -7 28 -19 68 -25 91 -30 102 68 191 166 150z"/>
<path d="M975 2858 c-27 -5 -59 -11 -70 -13 -26 -5 -117 -93 -133 -128 -6 -15
-25 -35 -41 -45 -37 -21 -48 -75 -25 -122 12 -24 15 -46 10 -88 -4 -32 -10
-100 -14 -152 -8 -102 -15 -117 -87 -203 -71 -84 -99 -61 -94 80 3 97 -2 141
-23 196 -9 24 -7 31 11 51 11 12 21 32 21 43 0 13 8 24 20 28 26 8 25 21 -4
59 -13 17 -26 42 -31 56 -12 43 -54 108 -73 114 -9 3 -32 19 -50 36 -84 76
-218 11 -198 -97 18 -96 16 -207 -6 -260 -22 -55 -17 -135 15 -233 6 -19 10
-57 9 -85 -2 -30 7 -80 21 -125 19 -62 21 -84 14 -128 -12 -72 38 -191 90
-216 17 -8 40 -27 49 -41 19 -29 46 -32 100 -9 21 9 51 13 68 10 173 -30 190
-40 183 -114 -7 -70 -28 -89 -175 -161 -56 -28 -102 -55 -102 -61 0 -18 -69
-87 -99 -100 -17 -6 -34 -24 -40 -38 -6 -15 -24 -51 -41 -81 -16 -30 -30 -63
-30 -75 0 -23 -25 -67 -85 -152 -54 -77 -57 -235 -9 -482 11 -55 78 -107 134
-105 62 3 70 7 70 41 0 15 14 47 30 71 17 24 30 48 30 53 0 4 8 8 18 8 18 0
42 37 42 65 0 8 -7 15 -15 15 -23 0 -18 36 10 64 27 27 31 52 15 106 -18 63
16 190 56 208 13 7 24 18 24 26 0 33 118 99 145 82 52 -34 61 -71 49 -216 -5
-70 1 -113 28 -180 13 -33 27 -115 37 -222 12 -136 76 -202 163 -169 52 19
118 23 118 7 0 -9 7 -16 16 -16 13 0 15 6 10 33 -8 38 -8 56 0 119 4 32 -1 80
-17 150 -15 72 -23 143 -25 238 -1 74 -4 155 -6 180 -3 48 -7 45 93 90 113 50
275 -14 328 -131 12 -24 29 -59 40 -77 14 -24 17 -44 14 -73 -5 -31 -1 -45 14
-62 56 -62 111 -230 130 -399 7 -67 27 -81 99 -71 59 8 59 8 68 72 6 41 6 82
-1 112 -6 31 -6 97 0 183 9 135 9 135 -23 223 -18 48 -38 106 -44 128 -7 22
-18 53 -24 68 -7 16 -12 44 -12 62 0 25 -6 38 -21 46 -12 6 -49 39 -84 72 -67
66 -128 107 -186 126 -20 6 -48 25 -64 41 -33 35 -112 57 -144 41 -30 -17 -73
-13 -110 10 -33 20 -33 21 -29 78 7 100 20 111 136 111 72 0 103 4 120 15 17
13 26 14 44 4 51 -28 199 -5 264 40 33 23 66 41 75 41 27 0 72 55 64 79 -4 14
1 33 14 55 24 38 42 109 46 176 1 25 5 55 9 67 8 24 -8 92 -31 136 -8 16 -12
36 -8 45 27 63 23 176 -7 214 -30 36 -30 38 -18 88 12 49 11 51 -14 75 -14 13
-26 30 -26 38 0 43 -80 177 -105 177 -8 0 -36 11 -63 25 -28 14 -59 25 -71 25
-31 0 -109 -59 -129 -99 -10 -20 -30 -58 -46 -84 -34 -57 -27 -215 14 -332 15
-42 23 -95 27 -180 6 -147 -1 -170 -57 -184 -22 -6 -57 -15 -79 -21 -117 -30
-166 3 -157 107 4 42 11 84 17 94 13 25 11 157 -3 197 -11 29 -10 35 5 43 24
14 21 43 -9 78 -28 34 -42 112 -30 176 7 36 8 37 41 31 45 -9 75 8 75 39 0 30
-17 32 -67 8 -35 -16 -35 -16 -73 28 -50 57 -51 120 -1 75 23 -21 34 -20 54 2
51 56 -22 77 -168 50z"/>
</g>
</svg>
