<svg width="512" height="512" viewBox="0 0 512 512" xmlns="http://www.w3.org/2000/svg"><defs>
  <clipPath id="clip-tangkaiyuan"><circle cx="256" cy="256" r="231.936"/></clipPath>
  <radialGradient id="wash-tangkaiyuan" cx="0.4" cy="0.32" r="0.72">
    <stop offset="0" stop-color="#e8d4a8"/>
    <stop offset="0.5" stop-color="#c4a878"/>
    <stop offset="1" stop-color="#8a7040"/>
  </radialGradient>
  <radialGradient id="mist-tangkaiyuan" cx="0.64" cy="0.72" r="0.6">
    <stop offset="0" stop-color="rgba(138,112,64,0)"/>
    <stop offset="0.68" stop-color="rgba(138,112,64,0.24)"/>
    <stop offset="1" stop-color="rgba(28,20,8,0.44)"/>
  </radialGradient>
  <radialGradient id="lift-tangkaiyuan" cx="0.34" cy="0.24" r="0.5">
    <stop offset="0" stop-color="rgba(240,226,192,0.32)"/>
    <stop offset="1" stop-color="rgba(240,226,192,0)"/>
  </radialGradient>
  <filter id="paper-tangkaiyuan" x="-8%" y="-8%" width="116%" height="116%">
    <feTurbulence type="fractalNoise" baseFrequency="0.62 0.72" numOctaves="4" seed="11" result="n"/>
    <feColorMatrix in="n" type="matrix" values="0 0 0 0 0.16 0 0 0 0 0.13 0 0 0 0 0.09 0 0 0 0.16 0" result="g"/>
    <feBlend in="SourceGraphic" in2="g" mode="multiply"/>
  </filter>
  <filter id="brush-tangkaiyuan">
    <feTurbulence type="fractalNoise" baseFrequency="0.03 0.05" numOctaves="2" seed="9" result="t"/>
    <feDisplacementMap in="SourceGraphic" in2="t" scale="8.70" xChannelSelector="R" yChannelSelector="G"/>
  </filter>
  <filter id="bleed-tangkaiyuan" x="-40%" y="-40%" width="180%" height="180%">
    <feGaussianBlur stdDeviation="2.41"/>
  </filter>
  <filter id="bloom-tangkaiyuan" x="-60%" y="-60%" width="220%" height="220%">
    <feGaussianBlur stdDeviation="10.24"/>
  </filter>
</defs><g clip-path="url(#clip-tangkaiyuan)" filter="url(#paper-tangkaiyuan)">
  <circle cx="256" cy="256" r="231.936" fill="url(#wash-tangkaiyuan)"/>
  <circle cx="256" cy="256" r="231.936" fill="url(#lift-tangkaiyuan)"/>
  <circle cx="256" cy="256" r="231.936" fill="url(#mist-tangkaiyuan)"/>
  <circle cx="153.6" cy="348.2" r="46.1" fill="rgba(60,40,16,0.22)" filter="url(#bloom-tangkaiyuan)"/><circle cx="358.4" cy="153.6" r="30.7" fill="rgba(236,216,160,0.2)" filter="url(#bloom-tangkaiyuan)"/>
</g><g filter="url(#brush-tangkaiyuan)">
  <circle cx="256" cy="256" r="230.4" fill="none" stroke="#6a5430" stroke-width="9.01" opacity="0.72"/>
  <circle cx="256" cy="256" r="204.8" fill="none" stroke="#6a5430" stroke-width="4.10" opacity="0.42"/>
</g><g>
  <circle cx="256.0" cy="102.4" r="13.3" fill="#3a2a12" opacity="0.5"/>
  <circle cx="256.0" cy="102.4" r="22.6" fill="none" stroke="#e8d4a0" stroke-width="2.05" opacity="0.16"/>
  <path d="M 256.0 381.4 A 25.6 25.6 0 1 0 256.0 432.6 A 25.6 25.6 0 1 1 240.1 388.6 Z" fill="#3a2a12" opacity="0.42"/>
  <path d="M 256.0 381.4 A 25.6 25.6 0 1 0 256.0 432.6 A 25.6 25.6 0 1 1 240.1 388.6 Z" fill="none" stroke="#e8d4a0" stroke-width="2.05" opacity="0.16"/>
</g><rect x="190.0" y="190.0" width="132.1" height="132.1" rx="7.17" fill="none" stroke="#6a5430" stroke-width="7.01" opacity="0.5" filter="url(#brush-tangkaiyuan)"/>
  <rect x="206.1" y="206.1" width="99.8" height="99.8" rx="8.19" fill="#0a0805"/>
  <rect x="206.1" y="206.1" width="99.8" height="99.8" rx="8.19" fill="none" stroke="#3c2415" stroke-width="5.99" opacity="0.6"/>
  <rect x="206.1" y="206.1" width="99.8" height="99.8" rx="8.19" fill="none" stroke="rgba(240,226,192,0.14)" stroke-width="1.54"/></svg>