<svg width="512" height="512" viewBox="0 0 512 512" xmlns="http://www.w3.org/2000/svg"><defs>
  <linearGradient id="face-hanwuzhu" x1="0.22" y1="0" x2="0.78" y2="1">
    <stop offset="0" stop-color="#9AB8A8"/>
    <stop offset="1" stop-color="#4A6858"/>
  </linearGradient>
  <radialGradient id="shine-hanwuzhu" cx="0.36" cy="0.28" r="0.58">
    <stop offset="0" stop-color="rgba(255,255,255,0.16)"/>
    <stop offset="1" stop-color="rgba(0,0,0,0)"/>
  </radialGradient>
  <radialGradient id="wear-hanwuzhu" cx="0.62" cy="0.72" r="0.5">
    <stop offset="0" stop-color="rgba(0,0,0,0)"/>
    <stop offset="1" stop-color="rgba(0,0,0,0.22)"/>
  </radialGradient>
  <filter id="patina-hanwuzhu" x="-8%" y="-8%" width="116%" height="116%">
    <feTurbulence type="fractalNoise" baseFrequency="0.85" numOctaves="3" seed="4" result="n"/>
    <feColorMatrix in="n" type="matrix" values="0 0 0 0 0.408
      0 0 0 0 0.659
      0 0 0 0 0.533
      0 0 0 0.38 0" result="p"/>
    <feBlend in="SourceGraphic" in2="p" mode="multiply"/>
  </filter>
</defs><rect width="512" height="512" fill="#101816"/><g filter="url(#patina-hanwuzhu)">
  <circle cx="256" cy="256" r="235.52" fill="url(#face-hanwuzhu)" stroke="#3A5048" stroke-width="7.17"/>
  <circle cx="256" cy="256" r="235.52" fill="url(#shine-hanwuzhu)"/>
  <circle cx="256" cy="256" r="235.52" fill="url(#wear-hanwuzhu)"/>
  <circle cx="256" cy="256" r="193.1264" fill="none" stroke="#3A5048" stroke-width="3.58" opacity="0.5"/>
  <g transform="translate(168,256) scale(1.080) translate(-50,-50)"><path d="M 10 18 H 90 M 10 50 H 90 M 10 82 H 90 M 50 18 V 82 M 22 32 L 78 68 M 78 32 L 22 68" fill="none" stroke="#3A5048" stroke-width="7.43" stroke-linecap="round" stroke-linejoin="round" opacity="0.28" transform="translate(1.2,1.6)"/>
<path d="M 10 18 H 90 M 10 50 H 90 M 10 82 H 90 M 50 18 V 82 M 22 32 L 78 68 M 78 32 L 22 68" fill="#2E4038" stroke="#3A5048" stroke-width="5.50" stroke-linecap="round" stroke-linejoin="round"/></g><g transform="translate(344,256) scale(1.050) translate(-50,-50)"><path d="M 12 14 H 44 M 12 34 H 44 M 12 54 H 44 M 12 74 H 44 M 28 14 V 74 M 56 18 V 86 M 72 18 Q 88 34 72 50 Q 56 66 72 82 M 56 50 H 88" fill="none" stroke="#3A5048" stroke-width="6.75" stroke-linecap="round" stroke-linejoin="round" opacity="0.28" transform="translate(1.2,1.6)"/>
<path d="M 12 14 H 44 M 12 34 H 44 M 12 54 H 44 M 12 74 H 44 M 28 14 V 74 M 56 18 V 86 M 72 18 Q 88 34 72 50 Q 56 66 72 82 M 56 50 H 88" fill="#2E4038" stroke="#3A5048" stroke-width="5.00" stroke-linecap="round" stroke-linejoin="round"/></g>
  <rect x="199.68" y="199.68" width="112.64" height="112.64" rx="9.22" fill="#101816"/>
  <rect x="199.68" y="199.68" width="112.64" height="112.64" rx="9.22" fill="none" stroke="#3A5048" stroke-width="6.66"/>
</g></svg>