<svg width="512" height="512" viewBox="0 0 512 512" xmlns="http://www.w3.org/2000/svg"><defs>
  <linearGradient id="face-qinbanliang" x1="0.22" y1="0" x2="0.78" y2="1">
    <stop offset="0" stop-color="#D8D4CC"/>
    <stop offset="1" stop-color="#9A9690"/>
  </linearGradient>
  <radialGradient id="shine-qinbanliang" cx="0.36" cy="0.28" r="0.58">
    <stop offset="0" stop-color="rgba(255,255,255,0.16)"/>
    <stop offset="1" stop-color="rgba(0,0,0,0)"/>
  </radialGradient>
  <radialGradient id="wear-qinbanliang" cx="0.62" cy="0.72" r="0.5">
    <stop offset="0" stop-color="rgba(0,0,0,0)"/>
    <stop offset="1" stop-color="rgba(0,0,0,0.22)"/>
  </radialGradient>
  <filter id="patina-qinbanliang" x="-8%" y="-8%" width="116%" height="116%">
    <feTurbulence type="fractalNoise" baseFrequency="0.85" numOctaves="3" seed="4" result="n"/>
    <feColorMatrix in="n" type="matrix" values="0 0 0 0 0.690
      0 0 0 0 0.675
      0 0 0 0 0.643
      0 0 0 0.12 0" result="p"/>
    <feBlend in="SourceGraphic" in2="p" mode="multiply"/>
  </filter>
</defs><rect width="512" height="512" fill="#141412"/><g filter="url(#patina-qinbanliang)">
  <circle cx="256" cy="256" r="235.52" fill="url(#face-qinbanliang)" stroke="#5C5A56" stroke-width="7.17"/>
  <circle cx="256" cy="256" r="235.52" fill="url(#shine-qinbanliang)"/>
  <circle cx="256" cy="256" r="235.52" fill="url(#wear-qinbanliang)"/>
  <circle cx="256" cy="256" r="193.1264" fill="none" stroke="#5C5A56" stroke-width="3.58" opacity="0.5"/>
  <g transform="translate(168,256) scale(1.050) translate(-50,-50)"><path d="M 28 10 V 90 M 72 10 V 90 M 28 10 Q 50 28 72 10 M 28 90 Q 50 72 72 90 M 50 28 V 72" fill="none" stroke="#5C5A56" stroke-width="8.10" stroke-linecap="round" stroke-linejoin="round" opacity="0.28" transform="translate(1.2,1.6)"/>
<path d="M 28 10 V 90 M 72 10 V 90 M 28 10 Q 50 28 72 10 M 28 90 Q 50 72 72 90 M 50 28 V 72" fill="#4A4844" stroke="#5C5A56" stroke-width="6.00" stroke-linecap="round" stroke-linejoin="round"/></g><g transform="translate(344,256) scale(1.050) translate(-50,-50)"><path d="M 8 12 H 92 M 8 38 H 42 M 58 38 H 92 M 38 38 V 68 M 62 38 V 68 M 8 88 H 92" fill="none" stroke="#5C5A56" stroke-width="8.78" stroke-linecap="round" stroke-linejoin="round" opacity="0.28" transform="translate(1.2,1.6)"/>
<path d="M 8 12 H 92 M 8 38 H 42 M 58 38 H 92 M 38 38 V 68 M 62 38 V 68 M 8 88 H 92" fill="#4A4844" stroke="#5C5A56" stroke-width="6.50" stroke-linecap="round" stroke-linejoin="round"/></g>
  <rect x="199.68" y="199.68" width="112.64" height="112.64" rx="9.22" fill="#141412"/>
  <rect x="199.68" y="199.68" width="112.64" height="112.64" rx="9.22" fill="none" stroke="#5C5A56" stroke-width="6.66"/>
</g></svg>