<svg width="1024" height="1024" viewBox="0 0 1024 1024" xmlns="http://www.w3.org/2000/svg"><defs>
  <style type="text/css"><![CDATA[
    @font-face {
      font-family: 'CoinCastBrush';
      src: url('file:///Users/chris/Library/Fonts/MaShanZheng-Regular.ttf');
    }
  ]]></style>
  <clipPath id="clip-hanwuzhu"><circle cx="512" cy="512" r="463.872"/></clipPath>
  <radialGradient id="wash-hanwuzhu" cx="0.45" cy="0.4" r="0.85">
    <stop offset="0" stop-color="#f8faf6"/>
    <stop offset="0.75" stop-color="#f2f5f0"/>
    <stop offset="1" stop-color="#e6ebe4"/>
  </radialGradient>
  <radialGradient id="mist-hanwuzhu" cx="0.72" cy="0.8" r="0.5">
    <stop offset="0" stop-color="rgba(154,172,160,0)"/>
    <stop offset="0.8" stop-color="rgba(154,172,160,0.06)"/>
    <stop offset="1" stop-color="rgba(26,36,28,0.04)"/>
  </radialGradient>
  <radialGradient id="lift-hanwuzhu" cx="0.3" cy="0.2" r="0.45">
    <stop offset="0" stop-color="rgba(252,253,251,0.5)"/>
    <stop offset="1" stop-color="rgba(252,253,251,0)"/>
  </radialGradient>
  <filter id="paper-hanwuzhu" x="-8%" y="-8%" width="116%" height="116%">
    <feTurbulence type="fractalNoise" baseFrequency="1.1 1.2" numOctaves="2" seed="7" result="n"/>
    <feColorMatrix in="n" type="matrix" values="0 0 0 0 0.06 0 0 0 0 0.08 0 0 0 0 0.06 0 0 0 0.1 0" result="g"/>
    <feBlend in="SourceGraphic" in2="g" mode="multiply"/>
  </filter>
  <filter id="brush-hanwuzhu" x="-20%" y="-20%" width="140%" height="140%">
    <feTurbulence type="fractalNoise" baseFrequency="0.02 0.035" numOctaves="2" seed="3" result="t"/>
    <feDisplacementMap in="SourceGraphic" in2="t" scale="18.43" xChannelSelector="R" yChannelSelector="G"/>
  </filter>
  <filter id="bleed-hanwuzhu" x="-60%" y="-60%" width="220%" height="220%">
    <feGaussianBlur stdDeviation="8.19"/>
  </filter>
  <filter id="bloom-hanwuzhu" x="-60%" y="-60%" width="220%" height="220%">
    <feGaussianBlur stdDeviation="32.77"/>
  </filter>
</defs><g clip-path="url(#clip-hanwuzhu)" filter="url(#paper-hanwuzhu)">
  <circle cx="512" cy="512" r="463.872" fill="url(#wash-hanwuzhu)"/>
  <circle cx="512" cy="512" r="463.872" fill="url(#lift-hanwuzhu)"/>
  <circle cx="512" cy="512" r="463.872" fill="url(#mist-hanwuzhu)"/>
  <circle cx="204.8" cy="266.2" r="112.6" fill="rgba(20,32,24,0.06)" filter="url(#bloom-hanwuzhu)"/><circle cx="778.2" cy="757.8" r="133.1" fill="rgba(20,32,24,0.07)" filter="url(#bloom-hanwuzhu)"/>
</g><g filter="url(#brush-hanwuzhu)" fill="none" stroke-linecap="round">
  <circle cx="512" cy="512" r="460.8" stroke="#1e2a22" stroke-width="14.34" opacity="0.78"/>
  <circle cx="512" cy="512" r="417.8" stroke="#1e2a22" stroke-width="5.63" opacity="0.28"/>
</g><g transform="translate(120.0,364.0) scale(2.8400)" fill="none" stroke-linecap="round" stroke-linejoin="round">
  <g stroke="#0a100c" stroke-width="18" opacity="0.22" filter="url(#bleed-hanwuzhu)" transform="translate(3,4)"><path d="M24 12 L10 28 M24 12 L38 28 M24 12 V80 M12 40 H36 M12 55 H36 M8 80 H40 M15 66 L21 60 M33 66 L27 60 M78 16 C66 22 60 32 58 42 M48 48 H92 M70 20 V84 M70 58 L52 84 M70 58 L88 84"/></g>
  <path stroke="#142018" stroke-width="12" opacity="0.92" d="M24 12 L10 28 M24 12 L38 28 M24 12 V80 M12 40 H36 M12 55 H36 M8 80 H40 M15 66 L21 60 M33 66 L27 60 M78 16 C66 22 60 32 58 42 M48 48 H92 M70 20 V84 M70 58 L52 84 M70 58 L88 84"/>
  <path stroke="#142018" stroke-width="5.5" opacity="0.55" d="M24 12 L10 28 M24 12 L38 28 M24 12 V80 M12 40 H36 M12 55 H36 M8 80 H40 M15 66 L21 60 M33 66 L27 60 M78 16 C66 22 60 32 58 42 M48 48 H92 M70 20 V84 M70 58 L52 84 M70 58 L88 84"/>
</g><g transform="translate(620.0,364.0) scale(2.8400)" fill="none" stroke-linecap="round" stroke-linejoin="round">
  <g stroke="#0a100c" stroke-width="18" opacity="0.22" filter="url(#bleed-hanwuzhu)" transform="translate(3,4)"><path d="M20 22 H80 M20 78 H80 M34 30 C48 44 52 56 66 70 M66 30 C52 44 48 56 34 70"/></g>
  <path stroke="#142018" stroke-width="12" opacity="0.92" d="M20 22 H80 M20 78 H80 M34 30 C48 44 52 56 66 70 M66 30 C52 44 48 56 34 70"/>
  <path stroke="#142018" stroke-width="5.5" opacity="0.55" d="M20 22 H80 M20 78 H80 M34 30 C48 44 52 56 66 70 M66 30 C52 44 48 56 34 70"/>
</g><g>
  <rect x="379.9" y="379.9" width="264.2" height="264.2" rx="14.34" fill="none" stroke="#1e2a22" stroke-width="11.26" opacity="0.45" filter="url(#brush-hanwuzhu)"/>
  <rect x="412.2" y="412.2" width="199.7" height="199.7" rx="16.38" fill="none" stroke="#1e2a22" stroke-width="10.24" opacity="0.55"/>
</g></svg>