<?xml version="1.0" standalone="no"?>
<!DOCTYPE svg PUBLIC "-//W3C//DTD SVG 20010904//EN"
 "http://www.w3.org/TR/2001/REC-SVG-20010904/DTD/svg10.dtd">
<svg version="1.0" xmlns="http://www.w3.org/2000/svg"
 width="765.000000pt" height="717.000000pt" viewBox="0 0 765.000000 717.000000"
 preserveAspectRatio="xMidYMid meet">
<metadata>
Created by potrace 1.16, written by Peter Selinger 2001-2019
</metadata>
<g transform="translate(0.000000,717.000000) scale(0.100000,-0.100000)"
fill="#B08D5B" stroke="none">
<path d="M1106 6916 c-115 -18 -246 -55 -246 -71 0 -7 14 -31 30 -54 26 -35
52 -52 168 -107 170 -82 190 -98 250 -187 142 -212 242 -436 242 -544 0 -73
-10 -77 -226 -97 -200 -18 -303 -32 -312 -41 -3 -3 7 -18 22 -34 40 -42 148
-88 251 -107 232 -43 283 -55 341 -84 96 -47 215 -200 214 -274 -1 -88 -148
-125 -735 -185 -110 -12 -231 -26 -270 -31 -38 -5 -139 -17 -224 -25 -139 -14
-343 -49 -363 -61 -27 -17 32 -86 105 -122 119 -59 384 -66 760 -21 206 25
439 30 515 10 73 -18 112 -57 112 -111 0 -50 17 -119 73 -295 52 -165 58 -298
19 -375 -52 -100 -165 -184 -395 -294 -372 -176 -592 -437 -689 -815 -50 -196
-49 -340 3 -616 10 -55 21 -114 23 -130 13 -72 56 -225 74 -262 11 -21 63
-101 116 -177 176 -255 172 -228 169 -993 l-1 -573 236 0 237 0 -95 64 c-52
35 -102 72 -112 82 -47 54 -60 199 -44 489 9 157 8 162 -17 250 -67 229 -49
275 109 275 232 0 543 -81 1034 -270 493 -189 955 -429 1461 -757 206 -133
206 -133 399 -133 179 0 192 1 185 18 -22 51 -28 101 -14 118 34 41 163 69
367 79 131 7 132 7 139 33 8 33 -4 51 -62 89 -58 39 -198 85 -360 118 -146 30
-179 31 -359 4 -86 -13 -167 -19 -206 -16 -145 10 -328 102 -795 397 -154 98
-285 155 -620 270 -309 106 -489 185 -531 231 -18 20 -18 22 19 92 20 40 66
110 102 157 36 47 83 108 104 135 170 222 151 448 -55 664 -337 354 -981 498
-1110 248 -21 -39 -7 -53 63 -66 143 -27 728 -270 857 -356 157 -104 114 -291
-124 -539 -188 -196 -306 -244 -505 -207 -107 20 -158 52 -188 119 -27 59
-151 405 -205 572 -112 342 -12 741 257 1022 117 123 196 183 331 252 231 119
370 140 510 77 347 -154 577 -212 1320 -331 595 -96 880 -176 1362 -380 511
-217 836 -374 1293 -626 149 -81 335 -183 414 -225 205 -110 210 -121 215
-451 2 -235 9 -269 75 -373 42 -68 101 -186 101 -204 0 -22 38 16 63 64 19 36
22 62 27 245 6 217 14 256 62 307 43 46 142 13 266 -87 34 -27 64 -50 67 -50
3 0 5 117 5 260 0 260 0 260 -22 264 -13 3 -55 9 -94 15 -216 32 -455 139
-934 416 -119 69 -350 185 -368 185 -14 0 -24 33 -17 52 16 40 144 84 365 124
156 28 234 53 268 84 41 39 20 56 -88 69 -94 12 -242 -2 -475 -44 -491 -88
-667 -72 -895 86 -118 81 -115 76 -79 142 44 81 63 92 147 81 99 -13 235 -8
432 15 336 40 400 59 400 121 0 62 -61 85 -220 84 -131 0 -189 -11 -515 -94
-313 -80 -374 -90 -529 -90 -229 0 -430 43 -861 183 -293 96 -298 97 -652 162
-299 54 -453 92 -498 121 -59 39 -81 116 -95 337 -27 425 -31 437 -254 657
-172 169 -177 187 -104 400 118 346 193 406 528 425 133 7 241 22 254 35 15
15 -65 87 -109 98 -22 6 -98 14 -170 17 -96 5 -142 12 -177 27 -27 11 -48 22
-48 24 0 19 75 357 90 407 50 161 160 257 296 257 54 0 54 0 54 36 0 121 -124
194 -400 239 -106 17 -375 46 -640 71 -241 21 -777 28 -894 10z"/>
</g>
</svg>
