<svg width="1024" height="1024" viewBox="0 0 240 240" xmlns="http://www.w3.org/2000/svg">
  <defs>
    <linearGradient id="c" x1="120" y1="66" x2="120" y2="200" gradientUnits="userSpaceOnUse">
      <stop offset="0" stop-color="#D14A3A"/><stop offset="1" stop-color="#9B2226"/>
    </linearGradient>
    <radialGradient id="v" cx="0.5" cy="0.42" r="0.62">
      <stop offset="0" stop-color="#1A1512"/><stop offset="1" stop-color="#0C0A09"/>
    </radialGradient></defs>
  <rect width="240" height="240" rx="54" fill="url(#v)"/>
  <rect x="9" y="9" width="222" height="222" rx="46" fill="none" stroke="#C4A882" stroke-opacity="0.16" stroke-width="1.4"/>
  <path d="M102.76 104.57L102.21 104L101.47 103.35L100.64 102.67L99.71 101.97L98.71 101.22L97.65 100.45L96.54 99.64L95.4 98.81L94.26 97.95L93.14 97.08L92.05 96.2L91.02 95.31L90.08 94.44L89.24 93.59L88.54 92.78L88.01 92.04L87.66 91.41L87.52 90.96L87.58 90.76L87.61 90.3L87.97 91.36L87.89 90.84L87.91 90.49L88 89.87L88.18 89.06L88.46 88.11L88.84 87.06L89.3 85.94L89.83 84.78L90.43 83.61L91.07 82.46L91.75 81.35L92.44 80.3L93.14 79.33L93.82 78.48L94.45 77.76L95 77.21L95.41 76.86L95.6 76.73L95.41 76.81L95.47 76.84L93.81 77.02L93.79 76.97L93.42 76.89L93.46 76.92L93.8 77.13L94.32 77.51L94.96 78.06L95.67 78.75L96.44 79.56L97.22 80.45L98.02 81.43L98.8 82.45L99.55 83.51L100.26 84.58L100.93 85.63L101.52 86.66L102.04 87.63L102.46 88.52L102.78 89.28L102.99 89.87L103.15 90.52L102.99 89.62L103.05 89.96L103.04 89.94L102.98 90.19L102.83 90.64L102.57 91.25L102.2 91.97L101.75 92.76L101.22 93.6L100.64 94.47L100.02 95.34L99.38 96.21L98.74 97.07L98.11 97.9L97.5 98.71L96.92 99.5L96.36 100.31L95.8 101.24L95.18 102.62L94.89 105.73L96 108.44L100.77 111.06L102.55 110.94L104.37 110.29L105.48 109.66L106.41 109.02L107.32 108.34L108.25 107.6L109.21 106.81L110.19 105.97L111.2 105.1L112.22 104.22L113.25 103.34L114.26 102.47L115.24 101.64L116.17 100.87L117.04 100.17L117.82 99.57L118.47 99.1L118.94 98.79L119.11 98.69L119.3 98.64L117.85 99.03L117.3 99.02L115.55 98.65L114.25 97.86L113.6 97.16L113.36 96.78L113.32 96.69L113.36 96.84L113.44 97.15L113.53 97.58L113.63 98.09L113.72 98.66L113.83 99.28L113.96 99.95L114.14 100.74L114.51 101.83L115.69 103.72L120.25 105.87L124.64 104.25L125.97 102.64L126.42 101.81L126.73 101.12L127.07 100.17L127.42 98.91L127.71 97.61L127.96 96.23L128.21 94.77L128.45 93.22L128.69 91.59L128.93 89.91L129.17 88.2L129.43 86.46L129.69 84.74L129.97 83.04L130.25 81.41L130.55 79.85L130.86 78.41L131.18 77.11L131.5 75.99L131.8 75.11L132.04 74.53L132.37 73.96L132 74.55L132.37 74.02L132.6 73.75L132.85 73.51L133.11 73.29L133.39 73.09L133.69 72.92L134 72.77L134.32 72.65L134.65 72.55L134.98 72.48L135.31 72.43L135.62 72.41L135.92 72.42L136.2 72.44L136.44 72.49L136.65 72.54L136.82 72.6L136.96 72.66L137.05 72.72L137.36 72.96L136.84 72.53L137.18 72.84L137.43 73.12L137.78 73.57L138.2 74.16L138.65 74.87L139.12 75.69L139.6 76.58L140.07 77.55L140.53 78.56L140.97 79.61L141.37 80.67L141.75 81.74L142.07 82.8L142.35 83.82L142.58 84.8L142.75 85.72L142.86 86.54L142.91 87.24L142.91 87.8L142.85 88.48L142.93 87.84L142.83 88.44L142.74 88.74L142.59 89.08L142.39 89.48L142.1 89.94L141.75 90.45L141.31 91L140.8 91.59L140.22 92.21L139.58 92.86L138.88 93.54L138.13 94.25L137.34 94.98L136.51 95.73L135.66 96.52L134.79 97.33L133.91 98.18L133.03 99.07L132.14 100.01L131.35 100.9L131.25 101.02L130.53 101.87L129.79 102.77L129.06 103.67L128.32 104.58L127.59 105.5L126.86 106.41L126.14 107.31L125.41 108.21L124.69 109.1L123.97 109.98L123.25 110.84L122.54 111.67L121.83 112.49L121.12 113.27L120.42 114.02L119.73 114.74L119.05 115.41L118.38 116.05L117.72 116.64L117 117.24L117.2 117.07L116.51 117.61L115.89 118.04L115.23 118.46L114.52 118.87L113.77 119.28L112.99 119.67L112.17 120.06L111.32 120.45L110.45 120.83L109.56 121.21L108.65 121.59L107.72 121.99L106.79 122.39L105.84 122.81L104.9 123.25L103.94 123.72L102.99 124.23L102.03 124.79L101.07 125.41L100.29 125.98L99.96 126.25L99.23 126.87L98.41 127.67L97.69 128.5L97.05 129.33L96.51 130.16L96.05 130.95L95.67 131.69L95.35 132.37L95.09 132.98L94.87 133.5L94.68 133.95L94.52 134.33L94.38 134.63L94.25 134.88L94.13 135.08L94.01 135.26L93.88 135.44L93.71 135.62L93.5 135.83L93.05 136.2L93.5 135.87L93.04 136.2L92.63 136.43L92.02 136.72L91.23 137.05L90.31 137.4L89.27 137.78L88.15 138.16L86.96 138.56L85.71 138.98L84.43 139.43L83.13 139.91L81.81 140.43L80.49 141.01L79.16 141.66L77.85 142.4L76.54 143.28L75.26 144.34L74.04 145.65L72.95 147.26L72.36 148.57L72.01 149.67L71.74 150.96L71.6 152.66L71.63 154.3L71.8 155.91L72.07 157.51L72.42 159.1L72.86 160.69L73.37 162.28L73.94 163.86L74.56 165.42L75.24 166.96L75.97 168.46L76.74 169.91L77.55 171.31L78.41 172.65L79.33 173.93L80.3 175.13L81.37 176.27L82.59 177.33L83.62 178.04L84.54 178.54L85.72 179.04L87.37 179.48L88.96 179.69L90.49 179.72L91.99 179.63L93.45 179.42L94.89 179.13L96.31 178.75L97.71 178.29L99.08 177.77L100.42 177.18L101.73 176.54L103 175.83L104.23 175.07L105.41 174.24L106.54 173.34L107.61 172.37L108.62 171.28L109.54 170.07L110.15 169.05L110.64 168.01L111.08 166.66L111.36 164.77L111.37 163.05L111.2 161.45L110.91 159.92L110.55 158.44L110.13 157L109.68 155.59L109.21 154.21L108.73 152.87L108.26 151.59L107.82 150.37L107.43 149.25L107.1 148.24L106.84 147.38L106.68 146.72L106.62 146.35L106.61 146.39L106.5 147.02L106.44 147.33L105.31 149.04L104.96 149.3L103.92 149.88L103.21 150.07L102.95 150.09L103.03 150.09L103.39 150.15L103.93 150.28L104.61 150.48L105.4 150.73L106.27 151.03L107.2 151.37L108.18 151.73L109.19 152.09L110.22 152.46L111.28 152.82L112.37 153.15L113.5 153.45L114.69 153.68L116 153.83L117.02 153.84L117.71 153.79L118.52 153.68L119.54 153.47L120.51 153.17L121.43 152.79L122.27 152.36L123.02 151.89L123.69 151.41L124.26 150.94L124.76 150.49L125.17 150.09L125.53 149.73L125.83 149.42L126.09 149.17L126.3 148.96L126.48 148.8L126.63 148.67L126.76 148.57L126.89 148.49L127.02 148.41L127.37 148.25L127.31 148.28L127.98 147.98L128.74 147.61L129.47 147.23L130.18 146.85L130.88 146.47L131.56 146.09L132.23 145.73L132.88 145.4L133.51 145.08L134.1 144.81L134.66 144.57L135.17 144.38L135.61 144.24L135.97 144.15L136.25 144.1L136.42 144.08L136.48 144.07L136.45 144.06L136.34 144.02L136.6 144.16L135.99 143.82L136.44 144.09L136.81 144.36L137.28 144.75L137.82 145.25L138.4 145.84L139.01 146.51L139.64 147.25L140.26 148.03L140.87 148.86L141.46 149.72L142.02 150.6L142.54 151.48L143.01 152.35L143.41 153.2L143.75 154.01L144.02 154.76L144.22 155.42L144.34 155.98L144.39 156.41L144.39 157.03L144.43 156.37L144.36 157.03L144.25 157.56L144.06 158.23L143.78 159.01L143.42 159.86L142.98 160.77L142.48 161.71L141.92 162.66L141.31 163.62L140.67 164.55L140 165.45L139.31 166.3L138.63 167.08L137.96 167.79L137.31 168.4L136.73 168.9L136.22 169.28L135.85 169.52L135.65 169.63L135.27 169.74L136.49 169.49L136.44 169.54L136.79 169.59L136.74 169.56L136.39 169.39L135.84 169.04L135.15 168.54L134.37 167.92L133.53 167.19L132.65 166.39L131.72 165.58L130.73 164.79L129.74 163.99L128.76 163.22L127.79 162.47L126.83 161.77L125.86 161.12L124.82 160.53L123.55 159.98L121.65 159.64L120.19 159.9L118.13 161.14L117.42 162.19L116.9 163.85L116.91 165.12L117.1 166.16L117.39 167.11L117.73 168.04L118.13 168.99L118.56 169.97L119.01 170.98L119.49 172.01L119.98 173.07L120.48 174.14L120.97 175.21L121.44 176.28L121.9 177.34L122.32 178.38L122.69 179.39L123.02 180.34L123.29 181.25L123.5 182.14L123.55 182.05L123.63 182.97L123.68 183.93L123.7 184.93L123.69 185.96L123.66 187.03L123.62 188.11L123.55 189.21L123.47 190.31L123.38 191.41L123.28 192.49L123.18 193.55L123.07 194.59L122.97 195.59L122.87 196.54L122.77 197.45L122.69 198.29L122.61 199.07L122.56 199.78L122.52 200.41L122.5 200.94L123.5 201.06L123.61 200.55L123.74 199.95L123.88 199.27L124.05 198.51L124.23 197.68L124.42 196.79L124.62 195.84L124.82 194.85L125.02 193.82L125.22 192.76L125.41 191.67L125.6 190.57L125.78 189.45L125.94 188.34L126.09 187.22L126.21 186.12L126.32 185.03L126.39 183.96L126.44 182.93L126.45 181.95L126.5 181.86L126.53 180.84L126.48 179.71L126.37 178.55L126.21 177.36L126.01 176.16L125.78 174.94L125.53 173.73L125.27 172.54L125.01 171.37L124.76 170.24L124.53 169.16L124.34 168.16L124.19 167.24L124.1 166.43L124.08 165.77L124.13 165.3L124.24 165.12L124.33 165.4L124.09 166.3L123.87 166.86L121.81 168.1L121.05 168.22L120.06 168.13L119.87 168.19L120.08 168.49L120.5 169.01L121.06 169.7L121.72 170.51L122.47 171.41L123.28 172.39L124.15 173.42L125.13 174.43L126.19 175.4L127.29 176.36L128.44 177.29L129.65 178.18L130.95 179L132.4 179.72L134.07 180.3L136.05 180.6L137.51 180.51L138.73 180.26L139.84 179.88L141.21 179.23L142.46 178.46L143.62 177.61L144.73 176.68L145.8 175.67L146.83 174.61L147.82 173.48L148.78 172.3L149.71 171.08L150.59 169.81L151.42 168.52L152.21 167.2L152.93 165.86L153.6 164.5L154.19 163.12L154.7 161.73L155.12 160.3L155.43 158.84L155.57 157.63L155.61 156.97L155.6 155.74L155.44 154.22L155.14 152.76L154.75 151.34L154.26 149.96L153.7 148.61L153.08 147.29L152.4 146.01L151.68 144.75L150.91 143.53L150.11 142.34L149.27 141.2L148.42 140.1L147.54 139.06L146.65 138.07L145.74 137.13L144.81 136.26L143.85 135.46L142.85 134.71L142.01 134.18L141.4 133.84L140.38 133.38L138.94 132.95L137.53 132.72L136.17 132.67L134.89 132.76L133.69 132.96L132.56 133.23L131.49 133.55L130.48 133.92L129.52 134.32L128.61 134.73L127.74 135.15L126.92 135.57L126.15 135.97L125.42 136.36L124.75 136.72L124.14 137.04L123.6 137.31L123.16 137.52L122.69 137.72L122.63 137.75L121.93 138.06L121.1 138.5L120.34 138.97L119.66 139.46L119.05 139.94L118.52 140.4L118.06 140.82L117.67 141.2L117.34 141.52L117.08 141.79L116.87 141.98L116.71 142.12L116.62 142.19L116.57 142.22L116.57 142.22L116.61 142.2L116.64 142.18L116.66 142.17L116.63 142.18L116.29 142.21L116.98 142.16L116.72 142.17L116.58 142.15L116.19 142.06L115.61 141.9L114.9 141.68L114.09 141.4L113.2 141.08L112.25 140.72L111.26 140.35L110.23 139.97L109.17 139.59L108.07 139.24L106.95 138.91L105.78 138.62L104.53 138.41L103.15 138.3L101.57 138.38L99.73 138.84L97.75 139.94L96.69 140.96L95.56 142.67L95.05 144.03L94.77 146L94.84 147.62L95.06 149.05L95.37 150.4L95.75 151.72L96.17 153.02L96.61 154.32L97.07 155.61L97.52 156.88L97.96 158.12L98.37 159.32L98.73 160.46L99.02 161.5L99.24 162.42L99.38 163.18L99.44 163.71L99.44 163.95L99.46 163.82L99.36 163.99L99.85 162.95L99.63 163.33L99.48 163.51L99.2 163.81L98.79 164.18L98.26 164.59L97.64 165.02L96.93 165.45L96.17 165.86L95.37 166.25L94.55 166.6L93.72 166.91L92.9 167.17L92.13 167.38L91.41 167.52L90.78 167.61L90.26 167.64L89.89 167.62L89.7 167.6L89.73 167.6L89.46 167.46L90.38 167.96L90.03 167.75L89.85 167.57L89.49 167.18L89.03 166.6L88.51 165.86L87.96 165L87.4 164.02L86.85 162.97L86.32 161.85L85.81 160.7L85.35 159.54L84.94 158.38L84.58 157.24L84.29 156.16L84.07 155.16L83.93 154.28L83.86 153.55L83.85 153.03L83.87 152.77L83.99 152.33L83.64 153.43L83.71 153.2L83.6 153.38L83.63 153.36L83.86 153.18L84.28 152.91L84.88 152.58L85.63 152.22L86.51 151.84L87.5 151.45L88.57 151.07L89.7 150.68L90.88 150.29L92.1 149.88L93.33 149.47L94.57 149.03L95.81 148.57L97.05 148.05L98.29 147.47L99.54 146.77L100.5 146.13L100.95 145.8L101.72 145.17L102.57 144.37L103.33 143.54L104 142.7L104.59 141.87L105.08 141.06L105.5 140.29L105.85 139.58L106.14 138.93L106.38 138.37L106.58 137.89L106.76 137.48L106.91 137.16L107.03 136.9L107.15 136.7L107.25 136.54L107.36 136.39L107.48 136.25L107.65 136.09L108.04 135.75L107.71 136.02L108.18 135.66L108.58 135.4L109.07 135.12L109.64 134.81L110.29 134.49L111.01 134.15L111.79 133.8L112.63 133.44L113.52 133.06L114.44 132.67L115.41 132.25L116.41 131.81L117.43 131.34L118.48 130.84L119.54 130.3L120.62 129.72L121.7 129.09L122.78 128.4L123.86 127.65L124.8 126.93L125 126.76L125.87 126.02L126.8 125.19L127.7 124.33L128.59 123.45L129.45 122.56L130.3 121.64L131.13 120.72L131.94 119.78L132.74 118.84L133.53 117.9L134.3 116.95L135.07 116.01L135.82 115.07L136.56 114.15L137.28 113.24L138 112.34L138.7 111.47L139.39 110.62L140.06 109.8L140.75 108.98L140.65 109.1L141.3 108.36L141.92 107.69L142.61 107L143.33 106.3L144.1 105.58L144.9 104.83L145.73 104.07L146.58 103.29L147.43 102.48L148.3 101.64L149.16 100.76L150.01 99.84L150.85 98.86L151.67 97.82L152.44 96.72L153.17 95.52L153.82 94.24L154.38 92.86L154.82 91.38L155.07 90.16L155.15 89.52L155.25 88.27L155.24 86.75L155.13 85.25L154.93 83.76L154.65 82.28L154.31 80.8L153.91 79.33L153.45 77.88L152.95 76.44L152.41 75.02L151.83 73.63L151.21 72.28L150.56 70.96L149.88 69.7L149.18 68.49L148.44 67.33L147.67 66.23L146.84 65.18L145.94 64.19L145.16 63.47L144.64 63.04L143.81 62.44L142.66 61.77L141.47 61.22L140.26 60.79L139.03 60.47L137.78 60.25L136.53 60.14L135.27 60.13L134.02 60.22L132.77 60.4L131.53 60.67L130.3 61.05L129.1 61.52L127.91 62.09L126.76 62.77L125.66 63.54L124.6 64.43L123.61 65.41L122.68 66.5L122 67.45L121.63 68.04L120.99 69.22L120.34 70.77L119.8 72.35L119.33 73.98L118.92 75.67L118.55 77.42L118.21 79.2L117.89 81.02L117.6 82.84L117.32 84.66L117.06 86.45L116.82 88.18L116.58 89.84L116.35 91.41L116.13 92.84L115.92 94.12L115.72 95.2L115.54 96.02L115.42 96.5L115.27 96.88L115.58 96.19L115.56 96.25L116.5 95.15L120.56 93.67L124.84 95.65L125.77 97.11L125.92 97.52L125.9 97.44L125.83 97.09L125.74 96.56L125.62 95.91L125.48 95.15L125.3 94.32L125.05 93.4L124.72 92.4L124.23 91.28L123.47 90.02L122.21 88.64L120.2 87.4L117.63 86.85L116.15 86.97L114.7 87.36L113.77 87.76L112.61 88.4L111.57 89.08L110.55 89.82L109.52 90.61L108.48 91.45L107.43 92.33L106.37 93.22L105.31 94.13L104.28 95.03L103.27 95.9L102.3 96.73L101.4 97.5L100.58 98.18L99.86 98.76L99.3 99.19L98.95 99.43L98.99 99.41L99.99 99.08L101.23 98.94L106 101.56L106.88 103.94L106.68 106.47L106.44 107.04L106.51 106.94L106.79 106.53L107.22 105.94L107.77 105.2L108.41 104.36L109.11 103.42L109.85 102.41L110.62 101.33L111.38 100.18L112.14 98.97L112.86 97.69L113.54 96.34L114.15 94.91L114.65 93.36L115.01 91.67L115.13 89.8L115.01 88.38L114.85 87.48L114.54 86.32L114.05 84.93L113.47 83.55L112.81 82.17L112.07 80.79L111.27 79.4L110.4 78.02L109.47 76.64L108.5 75.28L107.48 73.95L106.43 72.66L105.34 71.42L104.22 70.24L103.05 69.13L101.84 68.1L100.55 67.15L99.15 66.29L97.55 65.57L95.63 65.07L94.19 64.98L92.53 65.16L91.18 65.54L89.48 66.36L88.07 67.33L86.82 68.39L85.67 69.53L84.59 70.77L83.55 72.08L82.55 73.46L81.59 74.91L80.68 76.41L79.82 77.96L79.02 79.54L78.28 81.15L77.62 82.77L77.04 84.4L76.56 86.06L76.18 87.73L75.95 89.45L75.9 91.24L76.03 92.64L76.39 93.7L76.97 95.04L77.94 96.66L79.04 98.02L80.23 99.21L81.49 100.27L82.8 101.24L84.15 102.14L85.54 102.99L86.95 103.79L88.36 104.55L89.77 105.26L91.16 105.93L92.5 106.55L93.79 107.14L95.01 107.67L96.13 108.15L97.13 108.57L97.99 108.92L98.67 109.19L99.24 109.43Z" fill="url(#c)"/>
</svg>