<svg width="1024" height="1024" viewBox="0 0 240 240" xmlns="http://www.w3.org/2000/svg">
  <defs>
    <linearGradient id="c" x1="120" y1="70" x2="120" y2="206" gradientUnits="userSpaceOnUse">
      <stop offset="0" stop-color="#D14A3A"/><stop offset="1" stop-color="#9B2226"/>
    </linearGradient>
    <radialGradient id="v" cx="0.5" cy="0.42" r="0.62">
      <stop offset="0" stop-color="#1A1512"/><stop offset="1" stop-color="#0C0A09"/>
    </radialGradient></defs>
  <rect width="240" height="240" rx="54" fill="url(#v)"/>
  <rect x="9" y="9" width="222" height="222" rx="46" fill="none" stroke="#C4A882" stroke-opacity="0.16" stroke-width="1.4"/>
  <path d="M120.56 117.03L118.61 116.79L116.91 116.44L115.29 115.99L113.74 115.44L112.26 114.8L110.85 114.06L109.51 113.25L108.24 112.35L107.04 111.38L105.91 110.34L104.85 109.25L103.87 108.1L102.97 106.9L102.14 105.67L101.4 104.4L100.74 103.11L100.16 101.81L99.67 100.49L99.26 99.19L98.95 97.89L98.72 96.62L98.58 95.37L98.52 94.17L98.55 93.02L98.66 91.93L98.84 90.91L99.1 89.96L99.41 89.08L99.79 88.29L100.22 87.58L100.7 86.94L101.24 86.36L101.84 85.84L102.52 85.38L103.29 84.96L104.38 84.51L104.93 84.28L105.3 84.16L105.6 84.1L105.83 84.08L106.01 84.07L106.15 84.09L106.29 84.12L106.43 84.17L106.6 84.24L106.8 84.36L107.05 84.53L107.32 84.76L107.64 85.06L107.97 85.44L108.33 85.89L108.7 86.42L109.08 87.02L109.46 87.7L109.83 88.44L110.21 89.25L110.57 90.13L110.92 91.06L111.26 92.05L111.58 93.08L111.89 94.17L112.18 95.3L112.45 96.47L112.71 97.68L112.94 98.92L113.16 100.2L113.35 101.5L113.53 102.83L113.68 104.18L113.81 105.55L113.92 106.93L114.01 108.25L114 108.81L114 109.57L114 110.29L114 110.96L114 111.59L114 112.17L114 112.7L114 113.19L114 113.62L114 114.02L114 114.37L114 114.67L114 114.92L114 115.13L114 115.29L114 115.41L114 115.48L126 115.5L126 115.48L126 115.41L126 115.29L126 115.13L126 114.92L126 114.67L126 114.37L126 114.02L126 113.63L126 113.19L126 112.7L126 112.17L126 111.59L126 110.96L126 110.29L126 109.57L126 108.81L125.99 108.25L126.08 106.93L126.19 105.55L126.32 104.18L126.47 102.83L126.65 101.5L126.84 100.2L127.06 98.92L127.29 97.68L127.55 96.47L127.82 95.3L128.11 94.17L128.42 93.08L128.74 92.05L129.08 91.06L129.43 90.13L129.79 89.25L130.17 88.44L130.54 87.7L130.92 87.02L131.3 86.42L131.67 85.89L132.03 85.44L132.36 85.06L132.68 84.76L132.95 84.53L133.2 84.36L133.4 84.24L133.57 84.17L133.71 84.12L133.85 84.09L133.99 84.07L134.17 84.08L134.4 84.1L134.7 84.16L135.07 84.28L135.62 84.51L136.71 84.96L137.48 85.38L138.16 85.84L138.76 86.36L139.3 86.94L139.78 87.58L140.21 88.29L140.59 89.08L140.9 89.96L141.16 90.91L141.34 91.93L141.45 93.02L141.48 94.17L141.42 95.37L141.28 96.62L141.05 97.89L140.74 99.19L140.33 100.49L139.84 101.81L139.26 103.11L138.6 104.4L137.86 105.67L137.03 106.9L136.13 108.1L135.15 109.25L134.09 110.34L132.96 111.38L131.76 112.35L130.49 113.25L129.15 114.06L127.74 114.8L126.26 115.44L124.71 115.99L123.09 116.44L121.39 116.79L119.44 117.03L120.56 126.97L122.87 126.73L125.28 126.32L127.61 125.74L129.85 125.01L132.01 124.15L134.07 123.15L136.04 122.03L137.9 120.8L139.66 119.46L141.32 118.04L142.87 116.52L144.32 114.94L145.65 113.28L146.88 111.57L147.99 109.8L149 107.99L149.89 106.14L150.67 104.26L151.33 102.35L151.87 100.42L152.29 98.47L152.58 96.52L152.75 94.56L152.77 92.61L152.66 90.66L152.39 88.73L151.97 86.83L151.38 84.95L150.61 83.13L149.66 81.38L148.53 79.71L147.2 78.15L145.69 76.72L144.01 75.44L142.16 74.33L140.38 73.49L139.12 72.99L137.73 72.55L136.31 72.25L134.87 72.1L133.42 72.09L131.98 72.23L130.59 72.53L129.25 72.97L127.98 73.54L126.79 74.22L125.68 74.98L124.66 75.83L123.71 76.75L122.84 77.71L122.04 78.73L121.29 79.8L120.6 80.91L119.96 82.05L119.36 83.23L118.8 84.45L118.28 85.7L117.79 86.99L117.34 88.31L116.92 89.66L116.53 91.04L116.16 92.44L115.83 93.87L115.52 95.33L115.24 96.81L114.99 98.31L114.76 99.84L114.56 101.37L114.39 102.93L114.24 104.5L114.11 106.08L114.01 107.75L114 108.81L114 109.57L114 110.29L114 110.96L114 111.59L114 112.17L114 112.7L114 113.19L114 113.63L114 114.02L114 114.37L114 114.67L114 114.92L114 115.13L114 115.29L114 115.41L114 115.48L114 115.5L126 115.48L126 115.41L126 115.29L126 115.13L126 114.92L126 114.67L126 114.37L126 114.02L126 113.63L126 113.19L126 112.7L126 112.17L126 111.59L126 110.96L126 110.29L126 109.57L126 108.81L125.99 107.75L125.89 106.08L125.76 104.5L125.61 102.93L125.44 101.37L125.24 99.84L125.01 98.31L124.76 96.81L124.48 95.33L124.17 93.87L123.84 92.44L123.47 91.04L123.08 89.66L122.66 88.31L122.21 86.99L121.72 85.7L121.2 84.45L120.64 83.23L120.04 82.05L119.4 80.91L118.71 79.8L117.96 78.73L117.16 77.71L116.29 76.75L115.34 75.83L114.32 74.98L113.21 74.22L112.02 73.54L110.75 72.97L109.41 72.53L108.02 72.23L106.58 72.09L105.13 72.1L103.69 72.25L102.27 72.55L100.88 72.99L99.62 73.49L97.84 74.33L95.99 75.44L94.31 76.72L92.8 78.15L91.47 79.71L90.34 81.38L89.39 83.13L88.62 84.95L88.03 86.83L87.61 88.73L87.34 90.66L87.23 92.61L87.25 94.56L87.42 96.52L87.71 98.47L88.13 100.42L88.67 102.35L89.33 104.26L90.11 106.14L91 107.99L92.01 109.8L93.12 111.57L94.35 113.28L95.68 114.94L97.13 116.52L98.68 118.04L100.34 119.46L102.1 120.8L103.96 122.03L105.93 123.15L107.99 124.15L110.15 125.01L112.39 125.74L114.72 126.32L117.13 126.73L119.44 126.97Z" fill="url(#c)"/><path d="M119.44 133.03L117.13 133.27L114.72 133.68L112.39 134.26L110.15 134.99L107.99 135.85L105.93 136.85L103.96 137.97L102.1 139.2L100.34 140.54L98.68 141.96L97.13 143.48L95.68 145.06L94.35 146.72L93.12 148.43L92.01 150.2L91 152.01L90.11 153.86L89.33 155.74L88.67 157.65L88.13 159.58L87.71 161.53L87.42 163.48L87.25 165.44L87.23 167.39L87.34 169.34L87.61 171.27L88.03 173.17L88.62 175.05L89.39 176.87L90.34 178.62L91.47 180.29L92.8 181.85L94.31 183.28L95.99 184.56L97.84 185.67L99.62 186.51L100.88 187.01L102.27 187.45L103.69 187.75L105.13 187.9L106.58 187.91L108.02 187.77L109.41 187.47L110.75 187.03L112.02 186.46L113.21 185.78L114.32 185.02L115.34 184.17L116.29 183.25L117.16 182.29L117.96 181.27L118.71 180.2L119.4 179.09L120.04 177.95L120.64 176.77L121.2 175.55L121.72 174.3L122.21 173.01L122.66 171.69L123.08 170.34L123.47 168.96L123.84 167.56L124.17 166.13L124.48 164.67L124.76 163.19L125.01 161.69L125.24 160.16L125.44 158.63L125.61 157.07L125.76 155.5L125.89 153.92L125.99 152.25L126 151.19L126 150.43L126 149.71L126 149.04L126 148.41L126 147.83L126 147.3L126 146.81L126 146.37L126 145.98L126 145.63L126 145.33L126 145.08L126 144.87L126 144.71L126 144.59L126 144.52L126 144.5L114 144.52L114 144.59L114 144.71L114 144.87L114 145.08L114 145.33L114 145.63L114 145.98L114 146.38L114 146.81L114 147.3L114 147.83L114 148.41L114 149.04L114 149.71L114 150.43L114 151.19L114.01 152.25L114.11 153.92L114.24 155.5L114.39 157.07L114.56 158.63L114.76 160.16L114.99 161.69L115.24 163.19L115.52 164.67L115.83 166.13L116.16 167.56L116.53 168.96L116.92 170.34L117.34 171.69L117.79 173.01L118.28 174.3L118.8 175.55L119.36 176.77L119.96 177.95L120.6 179.09L121.29 180.2L122.04 181.27L122.84 182.29L123.71 183.25L124.66 184.17L125.68 185.02L126.79 185.78L127.98 186.46L129.25 187.03L130.59 187.47L131.98 187.77L133.42 187.91L134.87 187.9L136.31 187.75L137.73 187.45L139.12 187.01L140.38 186.51L142.16 185.67L144.01 184.56L145.69 183.28L147.2 181.85L148.53 180.29L149.66 178.62L150.61 176.87L151.38 175.05L151.97 173.17L152.39 171.27L152.66 169.34L152.77 167.39L152.75 165.44L152.58 163.48L152.29 161.53L151.87 159.58L151.33 157.65L150.67 155.74L149.89 153.86L149 152.01L147.99 150.2L146.88 148.43L145.65 146.72L144.32 145.06L142.87 143.48L141.32 141.96L139.66 140.54L137.9 139.2L136.04 137.97L134.07 136.85L132.01 135.85L129.85 134.99L127.61 134.26L125.28 133.68L122.87 133.27L120.56 133.03L119.44 142.97L121.39 143.21L123.09 143.56L124.71 144.01L126.26 144.56L127.74 145.2L129.15 145.94L130.49 146.75L131.76 147.65L132.96 148.62L134.09 149.66L135.15 150.75L136.13 151.9L137.03 153.1L137.86 154.33L138.6 155.6L139.26 156.89L139.84 158.19L140.33 159.51L140.74 160.81L141.05 162.11L141.28 163.38L141.42 164.63L141.48 165.83L141.45 166.98L141.34 168.07L141.16 169.09L140.9 170.04L140.59 170.92L140.21 171.71L139.78 172.42L139.3 173.06L138.76 173.64L138.16 174.16L137.48 174.62L136.71 175.04L135.62 175.49L135.07 175.72L134.7 175.84L134.4 175.9L134.17 175.92L133.99 175.93L133.85 175.91L133.71 175.88L133.57 175.83L133.4 175.76L133.2 175.64L132.95 175.47L132.68 175.24L132.36 174.94L132.03 174.56L131.67 174.11L131.3 173.58L130.92 172.98L130.54 172.3L130.17 171.56L129.79 170.75L129.43 169.87L129.08 168.94L128.74 167.95L128.42 166.92L128.11 165.83L127.82 164.7L127.55 163.53L127.29 162.32L127.06 161.08L126.84 159.8L126.65 158.5L126.47 157.17L126.32 155.82L126.19 154.45L126.08 153.07L125.99 151.75L126 151.19L126 150.43L126 149.71L126 149.04L126 148.41L126 147.83L126 147.3L126 146.81L126 146.38L126 145.98L126 145.63L126 145.33L126 145.08L126 144.87L126 144.71L126 144.59L126 144.52L114 144.5L114 144.52L114 144.59L114 144.71L114 144.87L114 145.08L114 145.33L114 145.63L114 145.98L114 146.38L114 146.81L114 147.3L114 147.83L114 148.41L114 149.04L114 149.71L114 150.43L114 151.19L114.01 151.75L113.92 153.07L113.81 154.45L113.68 155.82L113.53 157.17L113.35 158.5L113.16 159.8L112.94 161.08L112.71 162.32L112.45 163.53L112.18 164.7L111.89 165.83L111.58 166.92L111.26 167.95L110.92 168.94L110.57 169.87L110.21 170.75L109.83 171.56L109.46 172.3L109.08 172.98L108.7 173.58L108.33 174.11L107.97 174.56L107.64 174.94L107.32 175.24L107.05 175.47L106.8 175.64L106.6 175.76L106.43 175.83L106.29 175.88L106.15 175.91L106.01 175.93L105.83 175.92L105.6 175.9L105.3 175.84L104.93 175.72L104.38 175.49L103.29 175.04L102.52 174.62L101.84 174.16L101.24 173.64L100.7 173.06L100.22 172.42L99.79 171.71L99.41 170.92L99.1 170.04L98.84 169.09L98.66 168.07L98.55 166.98L98.52 165.83L98.58 164.63L98.72 163.38L98.95 162.11L99.26 160.81L99.67 159.51L100.16 158.19L100.74 156.89L101.4 155.6L102.14 154.33L102.97 153.1L103.87 151.9L104.85 150.75L105.91 149.66L107.04 148.62L108.24 147.65L109.51 146.75L110.85 145.94L112.26 145.2L113.74 144.56L115.29 144.01L116.91 143.56L118.61 143.21L120.56 142.97Z" fill="url(#c)"/><path d="M114.5 110L114.46 110.86L114.42 111.76L114.37 112.7L114.33 113.68L114.29 114.69L114.25 115.74L114.21 116.82L114.17 117.93L114.13 119.06L114.08 120.22L114.04 121.4L114 122.59L113.96 123.8L113.92 125.03L113.87 126.26L113.83 127.5L113.79 128.75L113.75 130L113.71 131.25L113.67 132.5L113.63 133.74L113.58 134.97L113.54 136.2L113.5 137.41L113.46 138.6L113.42 139.78L113.38 140.94L113.33 142.07L113.29 143.18L113.25 144.26L113.21 145.31L113.17 146.32L113.13 147.3L113.08 148.24L113.04 149.14L113 150L127 150L126.96 149.14L126.92 148.24L126.88 147.3L126.83 146.32L126.79 145.31L126.75 144.26L126.71 143.18L126.67 142.07L126.63 140.94L126.58 139.78L126.54 138.6L126.5 137.41L126.46 136.2L126.42 134.97L126.38 133.74L126.33 132.5L126.29 131.25L126.25 130L126.21 128.75L126.17 127.5L126.12 126.26L126.08 125.03L126.04 123.8L126 122.59L125.96 121.4L125.92 120.22L125.88 119.06L125.83 117.93L125.79 116.82L125.75 115.74L125.71 114.69L125.67 113.68L125.62 112.7L125.58 111.76L125.54 110.86L125.5 110Z" fill="url(#c)"/><path d="M103.39 76.92L102.51 76.38L101.6 75.88L100.72 75.44L99.86 75.07L99.03 74.76L98.21 74.52L97.43 74.34L96.66 74.21L95.92 74.15L95.21 74.15L94.52 74.21L93.86 74.32L93.24 74.5L92.65 74.74L92.11 75.03L91.61 75.39L91.17 75.79L90.79 76.24L90.48 76.73L90.24 77.25L90.07 77.79L89.97 78.34L89.95 78.89L89.98 79.44L90.08 79.99L90.24 80.52L90.45 81.03L90.71 81.53L91.02 82.02L91.38 82.49L91.79 82.94L92.24 83.37L92.74 83.78L93.28 84.16L93.87 84.53L94.48 84.85L95.52 83.15L95.01 82.79L94.59 82.44L94.22 82.08L93.89 81.72L93.63 81.37L93.41 81.02L93.23 80.69L93.11 80.36L93.02 80.06L92.97 79.78L92.96 79.52L92.98 79.3L93.02 79.1L93.09 78.93L93.16 78.79L93.25 78.67L93.35 78.58L93.46 78.51L93.58 78.44L93.71 78.39L93.87 78.34L94.05 78.31L94.26 78.28L94.51 78.27L94.79 78.28L95.12 78.31L95.48 78.38L95.89 78.48L96.34 78.62L96.83 78.8L97.36 79.04L97.93 79.32L98.54 79.66L99.18 80.06L99.86 80.52L100.61 81.08Z" fill="url(#c)"/><path d="M139.39 81.08L140.14 80.52L140.82 80.06L141.46 79.66L142.07 79.32L142.64 79.04L143.17 78.8L143.66 78.62L144.11 78.48L144.52 78.38L144.88 78.31L145.21 78.28L145.49 78.27L145.74 78.28L145.95 78.31L146.13 78.34L146.29 78.39L146.42 78.44L146.54 78.51L146.65 78.58L146.75 78.67L146.84 78.79L146.91 78.93L146.98 79.1L147.02 79.3L147.04 79.52L147.03 79.78L146.98 80.06L146.89 80.36L146.77 80.69L146.59 81.02L146.37 81.37L146.11 81.72L145.78 82.08L145.41 82.44L144.99 82.79L144.48 83.15L145.52 84.85L146.13 84.53L146.72 84.16L147.26 83.78L147.76 83.37L148.21 82.94L148.62 82.49L148.98 82.02L149.29 81.53L149.55 81.03L149.76 80.52L149.92 79.99L150.02 79.44L150.05 78.89L150.03 78.34L149.93 77.79L149.76 77.25L149.52 76.73L149.21 76.24L148.83 75.79L148.39 75.39L147.89 75.03L147.35 74.74L146.76 74.5L146.14 74.32L145.48 74.21L144.79 74.15L144.08 74.15L143.34 74.21L142.57 74.34L141.79 74.52L140.97 74.76L140.14 75.07L139.28 75.44L138.4 75.88L137.49 76.38L136.61 76.92Z" fill="url(#c)"/><path d="M98.71 180.81L98.44 181.75L98.18 182.7L97.92 183.64L97.67 184.58L97.42 185.52L97.18 186.46L96.96 187.39L96.74 188.31L96.54 189.24L96.35 190.16L96.17 191.07L96.01 191.98L95.86 192.89L95.73 193.79L95.61 194.69L95.52 195.58L95.45 196.46L95.39 197.34L95.36 198.21L95.35 199.08L95.37 199.93L95.41 200.78L95.48 201.63L95.58 202.46L95.7 203.28L95.85 204.1L96.04 204.9L96.25 205.69L96.5 206.47L96.77 207.24L97.09 207.99L97.43 208.73L97.81 209.45L98.22 210.16L98.67 210.85L99.14 211.51L100.86 210.49L100.53 209.8L100.26 209.14L100.02 208.47L99.81 207.79L99.64 207.12L99.49 206.44L99.38 205.76L99.3 205.07L99.24 204.38L99.22 203.69L99.22 202.99L99.24 202.28L99.29 201.57L99.36 200.85L99.45 200.13L99.56 199.4L99.7 198.66L99.86 197.91L100.03 197.16L100.23 196.4L100.44 195.63L100.67 194.85L100.92 194.07L101.18 193.28L101.46 192.48L101.75 191.67L102.06 190.86L102.37 190.03L102.71 189.2L103.05 188.37L103.4 187.52L103.76 186.67L104.13 185.81L104.51 184.95L104.9 184.08L105.29 183.19Z" fill="url(#c)"/><path d="M134.71 183.19L135.1 184.08L135.49 184.95L135.87 185.81L136.24 186.67L136.6 187.52L136.95 188.37L137.29 189.2L137.63 190.03L137.94 190.86L138.25 191.67L138.54 192.48L138.82 193.28L139.08 194.07L139.33 194.85L139.56 195.63L139.77 196.4L139.97 197.16L140.14 197.91L140.3 198.66L140.44 199.4L140.55 200.13L140.64 200.85L140.71 201.57L140.76 202.28L140.78 202.99L140.78 203.69L140.76 204.38L140.7 205.07L140.62 205.76L140.51 206.44L140.36 207.12L140.19 207.79L139.98 208.47L139.74 209.14L139.47 209.8L139.14 210.49L140.86 211.51L141.33 210.85L141.78 210.16L142.19 209.45L142.57 208.73L142.91 207.99L143.23 207.24L143.5 206.47L143.75 205.69L143.96 204.9L144.15 204.1L144.3 203.28L144.42 202.46L144.52 201.63L144.59 200.78L144.63 199.93L144.65 199.08L144.64 198.21L144.61 197.34L144.55 196.46L144.48 195.58L144.39 194.69L144.27 193.79L144.14 192.89L143.99 191.98L143.83 191.07L143.65 190.16L143.46 189.24L143.26 188.31L143.04 187.39L142.82 186.46L142.58 185.52L142.33 184.58L142.08 183.64L141.82 182.7L141.56 181.75L141.29 180.81Z" fill="url(#c)"/>
</svg>