<svg width="1024" height="1024" viewBox="0 0 240 240" xmlns="http://www.w3.org/2000/svg">
  <defs>
    <linearGradient id="c" x1="120" y1="64" x2="120" y2="196" gradientUnits="userSpaceOnUse">
      <stop offset="0" stop-color="#D14A3A"/><stop offset="1" stop-color="#9B2226"/>
    </linearGradient>
    <radialGradient id="v" cx="0.5" cy="0.42" r="0.62">
      <stop offset="0" stop-color="#1A1512"/><stop offset="1" stop-color="#0C0A09"/>
    </radialGradient>
  </defs>
  <rect width="240" height="240" rx="54" fill="url(#v)"/>
  <rect x="9" y="9" width="222" height="222" rx="46" fill="none" stroke="#C4A882" stroke-opacity="0.16" stroke-width="1.4"/>
  <g transform="translate(2,1)"><path d="M57.57 111.24L60 108.48L62.46 105.94L65 103.57L67.59 101.37L70.23 99.34L72.93 97.47L75.66 95.76L78.43 94.21L81.23 92.82L84.05 91.58L86.89 90.48L89.75 89.54L92.61 88.73L95.48 88.07L98.35 87.55L101.2 87.16L104.05 86.91L106.87 86.79L109.68 86.79L112.45 86.92L115.19 87.18L117.89 87.55L120.54 88.04L123.15 88.65L125.7 89.36L128.18 90.19L130.61 91.12L132.96 92.15L135.23 93.28L137.42 94.51L139.53 95.83L141.61 97.28L142.67 97.84L144.06 98.56L145.47 99.24L146.88 99.87L148.31 100.46L149.76 101L151.21 101.49L152.66 101.93L154.13 102.32L155.6 102.65L157.08 102.93L158.56 103.15L160.04 103.3L161.53 103.39L163.01 103.42L164.49 103.37L165.96 103.26L167.43 103.07L168.88 102.8L170.31 102.46L171.73 102.04L173.12 101.54L174.49 100.95L175.82 100.29L177.11 99.54L178.37 98.71L179.57 97.81L180.74 96.83L181.85 95.77L182.91 94.64L183.92 93.44L184.92 92.1L185.66 90.91L186.24 89.79L186.71 88.66L187.1 87.52L187.39 86.38L187.6 85.24L187.71 84.11L187.74 83L187.69 81.9L187.56 80.83L187.34 79.78L187.05 78.76L186.69 77.78L186.25 76.84L185.74 75.95L185.16 75.1L184.51 74.32L183.79 73.59L183.02 72.93L182.18 72.35L181.29 71.86L180.35 71.45L179.37 71.13L178.36 70.92L177.32 70.8L176.27 70.78L175.21 70.87L174.14 71.06L173.07 71.34L172 71.72L170.94 72.19L169.96 72.73L172.04 77.27L172.91 76.96L173.65 76.77L174.33 76.66L174.96 76.62L175.52 76.64L176.03 76.72L176.49 76.84L176.89 76.99L177.25 77.18L177.57 77.39L177.85 77.63L178.1 77.89L178.33 78.17L178.52 78.48L178.69 78.8L178.84 79.15L178.96 79.51L179.06 79.9L179.13 80.3L179.17 80.71L179.17 81.14L179.15 81.58L179.1 82.02L179.01 82.47L178.89 82.92L178.73 83.37L178.54 83.82L178.31 84.27L178.04 84.71L177.74 85.15L177.39 85.58L177.08 85.9L176.37 86.55L175.6 87.18L174.84 87.74L174.07 88.23L173.31 88.65L172.55 89.01L171.79 89.31L171.03 89.56L170.26 89.75L169.5 89.9L168.73 90L167.96 90.06L167.17 90.07L166.38 90.05L165.58 89.98L164.76 89.88L163.94 89.73L163.1 89.54L162.25 89.32L161.39 89.05L160.52 88.75L159.64 88.4L158.76 88.02L157.87 87.6L156.97 87.14L156.07 86.64L155.17 86.11L154.28 85.54L153.38 84.94L152.48 84.3L151.6 83.63L150.39 82.72L147.52 81.29L144.51 79.96L141.46 78.78L138.35 77.75L135.2 76.87L132.01 76.14L128.79 75.55L125.54 75.1L122.27 74.81L118.99 74.66L115.7 74.65L112.4 74.8L109.11 75.09L105.82 75.52L102.55 76.11L99.3 76.84L96.07 77.72L92.87 78.74L89.71 79.92L86.59 81.24L83.51 82.72L80.49 84.34L77.53 86.11L74.63 88.04L71.81 90.11L69.05 92.33L66.38 94.7L63.8 97.22L61.3 99.89L58.9 102.71L56.6 105.68L54.43 108.76Z" fill="url(#c)"/><path d="M164.77 101.03L166.84 101.99L168.57 102.97L170.16 104.04L171.62 105.19L172.94 106.41L174.13 107.69L175.2 109.03L176.13 110.42L176.95 111.84L177.64 113.3L178.2 114.78L178.65 116.27L178.98 117.77L179.19 119.27L179.28 120.76L179.25 122.22L179.11 123.66L178.86 125.06L178.51 126.42L178.04 127.73L177.47 128.98L176.8 130.18L176.03 131.31L175.15 132.37L174.17 133.37L173.07 134.3L171.86 135.15L170.52 135.93L169.05 136.63L167.43 137.23L165.66 137.73L163.84 138.1L163.19 138.25L162.34 138.37L161.62 138.43L161.02 138.44L160.52 138.42L160.11 138.38L159.76 138.32L159.45 138.25L159.17 138.15L158.9 138.02L158.64 137.84L158.39 137.6L158.15 137.3L157.94 136.93L157.76 136.49L157.62 135.99L157.54 135.43L157.51 134.82L157.55 134.17L157.66 133.49L157.84 132.79L158.1 132.07L158.44 131.35L158.86 130.63L159.36 129.92L159.96 129.23L160.64 128.57L161.42 127.94L162.3 127.36L163.28 126.82L164.36 126.35L165.67 125.92L164.33 120.08L162.73 120.32L161.08 120.71L159.5 121.21L158 121.84L156.58 122.57L155.25 123.4L154 124.32L152.86 125.34L151.81 126.43L150.87 127.6L150.04 128.83L149.31 130.12L148.71 131.47L148.22 132.86L147.86 134.29L147.63 135.76L147.54 137.25L147.6 138.77L147.83 140.29L148.23 141.81L148.81 143.31L149.59 144.76L150.55 146.13L151.7 147.41L153.03 148.56L154.52 149.56L156.16 150.4L157.91 151.06L159.76 151.55L161.7 151.86L163.73 151.99L166.16 151.9L169.24 151.17L172.06 150.24L174.72 149.12L177.2 147.81L179.51 146.32L181.63 144.66L183.56 142.85L185.28 140.91L186.81 138.85L188.12 136.69L189.23 134.45L190.14 132.14L190.84 129.78L191.34 127.38L191.64 124.96L191.75 122.53L191.66 120.09L191.39 117.67L190.94 115.26L190.29 112.89L189.47 110.56L188.47 108.28L187.29 106.07L185.93 103.93L184.4 101.87L182.69 99.92L180.82 98.07L178.78 96.35L176.58 94.76L174.22 93.31L171.7 92.02L169.23 90.97Z" fill="url(#c)"/><path d="M153.22 120.43L150.23 119.18L147.12 118.02L144.01 116.97L140.89 116.03L137.77 115.22L134.67 114.52L131.57 113.94L128.5 113.48L125.45 113.14L122.44 112.91L119.46 112.81L116.52 112.83L113.63 112.98L110.79 113.25L108 113.65L105.28 114.19L102.63 114.86L100.05 115.68L97.55 116.64L95.14 117.76L92.83 119.04L90.63 120.49L88.56 122.11L86.62 123.91L84.85 125.89L83.26 128.05L81.87 130.38L80.71 132.86L79.78 135.47L79.1 138.22L78.67 141.06L78.5 143.98L78.75 146.71L79.23 149.3L79.91 151.76L80.81 154.07L81.89 156.23L83.15 158.22L84.58 160.02L86.14 161.64L87.83 163.06L89.61 164.28L91.47 165.31L93.39 166.14L95.35 166.78L97.34 167.24L99.34 167.51L101.35 167.61L103.35 167.54L105.33 167.29L107.28 166.88L109.19 166.31L111.05 165.57L112.85 164.68L114.57 163.63L116.2 162.43L117.74 161.08L119.17 159.58L120.48 157.94L121.66 156.16L122.7 154.25L123.59 152.22L124.32 150.06L124.86 147.91L119.14 146.09L118.42 147.92L117.63 149.47L116.75 150.86L115.8 152.1L114.79 153.19L113.73 154.15L112.62 154.97L111.48 155.66L110.32 156.24L109.14 156.69L107.94 157.03L106.75 157.26L105.57 157.38L104.4 157.4L103.25 157.32L102.15 157.14L101.08 156.87L100.07 156.52L99.12 156.08L98.23 155.57L97.42 155L96.68 154.35L96.01 153.65L95.42 152.89L94.9 152.07L94.46 151.19L94.09 150.23L93.8 149.2L93.58 148.07L93.45 146.84L93.42 145.48L93.5 144.02L93.52 142.36L93.68 140.85L93.95 139.46L94.33 138.18L94.82 136.97L95.42 135.83L96.14 134.75L96.97 133.71L97.93 132.72L99.03 131.77L100.27 130.87L101.64 130.02L103.15 129.23L104.8 128.52L106.57 127.87L108.47 127.31L110.47 126.83L112.59 126.44L114.8 126.15L117.1 125.95L119.48 125.84L121.94 125.84L124.46 125.94L127.03 126.15L129.65 126.45L132.31 126.86L135.01 127.38L137.72 128L140.46 128.72L143.2 129.55L145.94 130.49L148.78 131.57Z" fill="url(#c)"/><path d="M100.8 158.39L100.33 159.88L99.85 161.31L99.36 162.71L98.86 164.09L98.34 165.43L97.8 166.74L97.26 168.02L96.7 169.25L96.13 170.44L95.55 171.6L94.96 172.7L94.37 173.76L93.76 174.77L93.15 175.72L92.53 176.63L91.91 177.47L91.29 178.26L90.66 178.99L90.04 179.66L89.41 180.27L88.79 180.81L88.16 181.3L87.54 181.72L86.93 182.08L86.31 182.37L85.68 182.61L85.05 182.79L84.41 182.9L83.75 182.95L83.06 182.92L82.35 182.82L81.54 182.6L80.46 185.4L81.34 185.84L82.31 186.21L83.31 186.48L84.33 186.65L85.36 186.71L86.4 186.67L87.44 186.53L88.48 186.3L89.51 185.97L90.53 185.56L91.53 185.07L92.52 184.5L93.5 183.85L94.46 183.14L95.4 182.37L96.34 181.53L97.25 180.63L98.16 179.67L99.04 178.66L99.92 177.6L100.78 176.49L101.62 175.33L102.45 174.12L103.27 172.87L104.07 171.58L104.85 170.26L105.62 168.89L106.37 167.49L107.11 166.06L107.83 164.59L108.53 163.1L109.2 161.61Z" fill="url(#c)"/><path d="M155.72 147.38L156.46 149.4L157.22 151.41L157.97 153.37L158.73 155.29L159.49 157.17L160.26 159L161.02 160.79L161.79 162.52L162.57 164.19L163.35 165.81L164.14 167.37L164.93 168.87L165.73 170.3L166.54 171.67L167.36 172.97L168.19 174.19L169.04 175.34L169.89 176.41L170.77 177.41L171.66 178.31L172.58 179.13L173.52 179.86L174.49 180.49L175.49 181.01L176.52 181.41L177.58 181.68L178.64 181.81L179.71 181.79L180.76 181.63L181.79 181.32L182.78 180.88L183.66 180.35L182.34 177.65L181.55 177.94L180.88 178.07L180.28 178.1L179.72 178.04L179.2 177.91L178.69 177.71L178.2 177.44L177.69 177.08L177.18 176.65L176.65 176.12L176.11 175.51L175.56 174.8L175.01 174L174.44 173.11L173.88 172.13L173.31 171.06L172.74 169.91L172.17 168.68L171.6 167.37L171.03 165.98L170.46 164.53L169.9 163.01L169.33 161.42L168.77 159.76L168.21 158.05L167.65 156.28L167.09 154.46L166.53 152.59L165.97 150.66L165.41 148.7L164.85 146.69L164.28 144.62Z" fill="url(#c)"/></g>
</svg>