<?xml version="1.0" encoding="UTF-8" standalone="no"?>
<svg xmlns="http://www.w3.org/2000/svg" width="444" height="441">
<g fill="#AAA" stroke="#999" transform="translate(-704.1515,-277.9983)">
<path fill="#000"
         d="M877.96165,308.97328C892.17735,325.55098 903.88465,344.23371 916.91505,352.49449C925.39135,357.69905 929.50245,357.69905 938.14665,353.33393C945.13935,348.21543 943.90545,339.06761 944.18275,330.25555C944.24125,324.53571 938.42385,317.97644 933.44575,314.60705C913.32285,303.68265 909.82095,306.52516 890.53745,300.97321C881.42075,298.09956 871.12885,301.77358 877.96165,308.97328z"
         id="Bafa1"/>
<path    d="M912.10025,392.3153C891.32765,399.93059 873.42545,406.9442 843.40395,411.19154C832.19015,413.14761 832.75675,414.69746 840.43235,420.30953C844.19435,422.51139 847.55015,423.69769 854.35875,424.27466C886.05175,419.22923 907.79225,418.24604 937.04775,418.88774C945.61085,418.25777 943.40895,404.62865 940.59775,402.5769C936.51495,397.53147 917.19865,390.04871 912.10025,392.3153z"
         id="Bafa2"/>
<path    d="M911.76905,392.84959C916.34355,389.4497 934.32335,396.81472 940.52275,402.55485C947.22545,408.1552 938.69475,418.22399 935.85125,443.32307C932.39835,511.42175 935.44495,570.38041 935.44495,639.49465C936.00135,660.54181 925.99575,684.63563 922.48985,684.96539C920.19235,682.96805 909.16095,675.08049 905.84785,651.5533C905.81555,624.40248 908.42355,603.345 908.79735,585.94354C908.79735,531.82578 912.25025,450.69417 908.39115,427.65251C907.61105,421.98743 904.59685,416.32235 901.98875,410.45416C898.84475,405.65532 907.64755,399.14847 911.76905,392.84959z"
         id="Bafa3"/>
<path    d="M918.90885,618.81245C925.01255,627.86569 929.28825,638.95005 932.14205,651.25308C936.31185,661.8238 926.87295,679.50343 918.65285,693.12082C912.16495,700.72132 903.23975,706.49382 896.34575,700.68895C886.56545,686.34449 868.86365,665.50044 860.91135,658.87423C855.17125,654.31008 851.25915,648.93348 849.17505,645.18178C849.55925,638.36135 860.50515,644.94631 866.77955,647.2659C874.60385,649.87398 883.24045,652.8883 891.06475,655.49638C895.18005,656.74742 898.48285,654.13933 901.37945,647.87524C907.89965,637.4429 912.99805,630.66657 918.90885,618.81245z"
         id="Bafa4"/>
<path    d="M871.76365,481.53553C871.47645,484.7514 858.59065,494.37704 841.06335,500.02421C813.87745,504.78726 798.40575,510.87648 771.44085,515.41851C756.56585,517.05417 743.90115,502.7759 741.84575,500.65411C736.06575,495.84681 760.34535,494.57595 775.34185,492.642C812.92705,487.64686 829.95685,482.4307 854.50155,475.22529C860.84495,474.08697 871.60895,478.91639 871.76365,481.53553z"
         id="Bafa5"/>
<path    d="M886.71595,494.39901C895.46865,502.24538 879.02435,512.30202 868.76875,524.56892C863.28695,529.21311 845.31705,563.12202 817.21485,592.55592C795.32245,615.9293 752.65365,639.08166 728.55095,642.34161C721.37875,641.68959 720.17415,641.70065 723.61125,637.07015C746.18885,621.49905 784.68035,590.01404 792.44915,580.63169C814.04335,557.62309 842.04715,513.39594 841.09655,505.41716C842.45585,495.55943 840.05785,494.54277 839.64895,489.10557C840.87555,482.99424 849.83815,479.53523 854.38015,475.19211C862.35915,472.16394 872.99025,480.62915 886.71595,494.39901z"
         id="Bafa6"/>
<path    d="M1056.8972,419.47549C1043.8568,425.84968 1034.495,431.69833 1017.7759,443.85327C995.48085,460.82535 982.11945,467.81249 959.82425,480.58038C951.72745,485.81609 944.59115,487.67996 938.07095,490.28805C925.22935,494.42128 928.41205,488.60831 934.91025,484.56354C956.20595,465.13554 974.12995,450.0693 996.75175,421.46869C1001.2407,415.11543 1005.6711,406.27676 1008.0582,401.30374C1010.0143,396.08757 1006.2729,392.19757 1011.9077,388.03245C1029.0063,384.67469 1072.3811,411.27174 1056.8972,419.47549z"
         id="Bafa7"/>
<path    d="M921.54935,473.04819C955.47395,510.12597 975.73505,535.1167 1015.4404,566.93924C1052.9851,592.93266 1085.8,604.21141 1126.4979,623.89855C1133.6218,628.35573 1124.9799,630.1853 1121.0678,631.48934C1107.3465,636.05349 1084.1658,639.56658 1054.6788,641.50312C1041.7063,640.74413 1032.9379,638.9341 1028.3738,635.02197C989.39925,597.72457 946.46205,528.54772 924.06185,497.83673C912.32395,482.66808 915.00715,469.12433 921.54935,473.04819z"
         id="Bafa8"/>
</g>
</svg>
