<svg xmlns="http://www.w3.org/2000/svg" width="1024" height="1024" viewBox="0 0 600 600"><image href="/Users/chris/Desktop/code/web/hexastral/apps/coin-cast-app/components/casting-scene/textures/skins/huaxia/design/ref_wuzhu_relief.jpg" x="0" y="0" width="600" height="600" preserveAspectRatio="none" opacity="0.55"/><g opacity="0.75"><rect x="235" y="217" width="160" height="160" fill="#080706" stroke="#00cc66" stroke-width="13" stroke-linejoin="round"/></g><g opacity="0.92"><g transform="translate(402.00,246.00) scale(1.0400)"><path d="M 24 12 Q 50 8 76 12" fill="none" stroke="#ff3333" stroke-width="10.38" stroke-linecap="round" stroke-linejoin="round"/><path d="M 32 16 Q 48 50 28 82" fill="none" stroke="#ff3333" stroke-width="10.38" stroke-linecap="round" stroke-linejoin="round"/><path d="M 68 16 Q 52 50 72 82" fill="none" stroke="#ff3333" stroke-width="10.38" stroke-linecap="round" stroke-linejoin="round"/><path d="M 22 88 Q 50 84 78 88" fill="none" stroke="#ff3333" stroke-width="10.38" stroke-linecap="round" stroke-linejoin="round"/></g><g transform="translate(87.00,240.00) scale(1.2000)"><path d="M 2 10 L 26 32" fill="none" stroke="#ff3333" stroke-width="9.33" stroke-linecap="round" stroke-linejoin="round"/><path d="M 50 10 L 26 32" fill="none" stroke="#ff3333" stroke-width="9.33" stroke-linecap="round" stroke-linejoin="round"/><path d="M 26 32 L 26 92" fill="none" stroke="#ff3333" stroke-width="9.33" stroke-linecap="round" stroke-linejoin="round"/><path d="M 8 44 L 44 44" fill="none" stroke="#ff3333" stroke-width="9.33" stroke-linecap="round" stroke-linejoin="round"/><path d="M 6 62 L 46 62" fill="none" stroke="#ff3333" stroke-width="9.33" stroke-linecap="round" stroke-linejoin="round"/><path d="M 58 10 L 82 10" fill="none" stroke="#ff3333" stroke-width="9.33" stroke-linecap="round" stroke-linejoin="round"/><path d="M 70 18 L 70 92" fill="none" stroke="#ff3333" stroke-width="9.33" stroke-linecap="round" stroke-linejoin="round"/><path d="M 44 44 Q 70 60 96 44" fill="none" stroke="#ff3333" stroke-width="9.33" stroke-linecap="round" stroke-linejoin="round"/><path d="M 70 62 Q 42 80 36 94" fill="none" stroke="#ff3333" stroke-width="9.33" stroke-linecap="round" stroke-linejoin="round"/><path d="M 70 62 Q 98 80 104 94" fill="none" stroke="#ff3333" stroke-width="9.33" stroke-linecap="round" stroke-linejoin="round"/></g></g></svg>