<svg xmlns="http://www.w3.org/2000/svg" width="1024" height="1024" viewBox="0 0 600 600"><image href="/Users/chris/Desktop/code/web/hexastral/apps/coin-cast-app/components/casting-scene/textures/skins/huaxia/design/ref_relief_annotated.jpg" x="0" y="0" width="600" height="600" preserveAspectRatio="none" opacity="0.55"/><g opacity="0.92"><g transform="translate(398.00,248.00) scale(1.0800)"><path d="M 36 16 L 50 10 L 64 16" fill="none" stroke="#ff3333" stroke-width="10.19" stroke-linecap="round" stroke-linejoin="round"/><path d="M 20 32 L 80 32" fill="none" stroke="#ff3333" stroke-width="10.19" stroke-linecap="round" stroke-linejoin="round"/><path d="M 50 32 L 50 56" fill="none" stroke="#ff3333" stroke-width="10.19" stroke-linecap="round" stroke-linejoin="round"/><path d="M 50 56 Q 24 64 10 88" fill="none" stroke="#ff3333" stroke-width="10.19" stroke-linecap="round" stroke-linejoin="round"/><path d="M 50 56 Q 76 64 90 88" fill="none" stroke="#ff3333" stroke-width="10.19" stroke-linecap="round" stroke-linejoin="round"/></g><g transform="translate(92.00,248.00) scale(1.0800)"><path d="M 6 13 L 94 13" fill="none" stroke="#ff3333" stroke-width="10.19" stroke-linecap="round" stroke-linejoin="round"/><path d="M 11 13 L 11 76" fill="none" stroke="#ff3333" stroke-width="10.19" stroke-linecap="round" stroke-linejoin="round"/><path d="M 43 13 L 43 76" fill="none" stroke="#ff3333" stroke-width="10.19" stroke-linecap="round" stroke-linejoin="round"/><path d="M 11 76 L 43 76" fill="none" stroke="#ff3333" stroke-width="10.19" stroke-linecap="round" stroke-linejoin="round"/><path d="M 27 25 L 27 64" fill="none" stroke="#ff3333" stroke-width="10.19" stroke-linecap="round" stroke-linejoin="round"/><path d="M 27 25 L 19 43" fill="none" stroke="#ff3333" stroke-width="10.19" stroke-linecap="round" stroke-linejoin="round"/><path d="M 27 25 L 35 43" fill="none" stroke="#ff3333" stroke-width="10.19" stroke-linecap="round" stroke-linejoin="round"/><path d="M 57 13 L 57 76" fill="none" stroke="#ff3333" stroke-width="10.19" stroke-linecap="round" stroke-linejoin="round"/><path d="M 89 13 L 89 76" fill="none" stroke="#ff3333" stroke-width="10.19" stroke-linecap="round" stroke-linejoin="round"/><path d="M 57 76 L 89 76" fill="none" stroke="#ff3333" stroke-width="10.19" stroke-linecap="round" stroke-linejoin="round"/><path d="M 73 25 L 73 64" fill="none" stroke="#ff3333" stroke-width="10.19" stroke-linecap="round" stroke-linejoin="round"/><path d="M 73 25 L 65 43" fill="none" stroke="#ff3333" stroke-width="10.19" stroke-linecap="round" stroke-linejoin="round"/><path d="M 73 25 L 81 43" fill="none" stroke="#ff3333" stroke-width="10.19" stroke-linecap="round" stroke-linejoin="round"/></g></g></svg>